<svg width="229" height="193" viewBox="0 0 229 193" fill="none" xmlns="http://www.w3.org/2000/svg">
  <g style="mix-blend-mode:hard-light" clip-path="url(#clip0_139_3424)">
    <path d="M185.425 45.9671V61.1787C185.427 67.0529 184.268 72.87 182.013 78.2977C179.759 83.7254 176.453 88.6573 172.285 92.8117C168.118 96.9662 163.169 100.262 157.723 102.51C152.277 104.759 146.439 105.916 140.544 105.916H134.271L141.243 98.7479C151.117 98.5558 160.523 94.5141 167.44 87.4902C174.358 80.4663 178.237 71.02 178.244 61.1787V49.5448H151.322L152.22 42.3862H181.835C182.306 42.3862 182.773 42.4789 183.209 42.6589C183.645 42.8389 184.041 43.1027 184.374 43.4352C184.708 43.7678 184.972 44.1626 185.153 44.597C185.333 45.0314 185.425 45.497 185.425 45.9671Z" fill="#E8A615"/>
    <path d="M136.066 149.015V156.917H89.3965V149.015C89.3966 148.698 89.4816 148.387 89.6427 148.114C89.8038 147.84 90.0352 147.614 90.3131 147.46L93.8498 145.472C96.856 143.785 99.3577 141.331 101.098 138.362C102.839 135.394 103.756 132.017 103.755 128.579V120.23H121.707V128.579C121.707 132.017 122.624 135.394 124.364 138.362C126.105 141.331 128.607 143.785 131.613 145.472L135.149 147.46C135.427 147.614 135.659 147.84 135.82 148.114C135.981 148.387 136.066 148.698 136.066 149.015Z" fill="#E8A615"/>
    <path d="M136.066 149.015V156.917H131.578V149.015C131.578 148.698 131.493 148.387 131.332 148.114C131.171 147.84 130.94 147.614 130.662 147.46L127.128 145.472C124.121 143.786 121.618 141.332 119.877 138.363C118.136 135.395 117.219 132.018 117.22 128.579V120.23H121.708V128.579C121.707 132.017 122.624 135.394 124.365 138.362C126.105 141.331 128.607 143.785 131.613 145.472L135.15 147.46C135.428 147.614 135.659 147.84 135.82 148.114C135.981 148.387 136.066 148.698 136.066 149.015Z" fill="#B7791D"/>
    <path d="M127.09 113.251V118.441C127.09 119.628 126.618 120.765 125.776 121.605C124.934 122.444 123.793 122.916 122.602 122.916H102.861C101.671 122.916 100.529 122.444 99.6874 121.605C98.8458 120.765 98.373 119.628 98.373 118.441V113.251H127.09Z" fill="#E8A615"/>
    <path d="M121.704 122.916H103.755V125.546H121.704V122.916Z" fill="#B7791D"/>
    <path d="M143.244 155.125V186.443H82.2188V155.125C82.2204 154.651 82.4101 154.197 82.7464 153.862C83.0827 153.527 83.5384 153.338 84.014 153.336H141.449C141.924 153.338 142.38 153.527 142.716 153.862C143.052 154.197 143.242 154.651 143.244 155.125Z" fill="#343B49"/>
    <path d="M143.244 155.125V186.443H139.657V155.125C139.655 154.651 139.465 154.197 139.129 153.862C138.793 153.527 138.337 153.338 137.861 153.336H141.449C141.924 153.338 142.38 153.527 142.716 153.862C143.053 154.197 143.242 154.651 143.244 155.125Z" fill="#262D38"/>
    <path d="M146.834 183.76H78.6282C77.6368 183.76 76.833 184.561 76.833 185.549V189.129C76.833 190.117 77.6368 190.918 78.6282 190.918H146.834C147.826 190.918 148.629 190.117 148.629 189.129V185.549C148.629 184.561 147.826 183.76 146.834 183.76Z" fill="#262D38"/>
    <path d="M148.63 185.549V189.126C148.629 189.601 148.44 190.056 148.103 190.391C147.767 190.727 147.311 190.917 146.835 190.918H143.244C143.72 190.917 144.176 190.727 144.513 190.391C144.849 190.056 145.039 189.601 145.039 189.126V185.549C145.039 185.074 144.849 184.62 144.513 184.285C144.176 183.949 143.72 183.761 143.244 183.76H146.835C147.31 183.761 147.766 183.95 148.102 184.286C148.438 184.621 148.628 185.075 148.63 185.549Z" fill="#171C23"/>
    <path d="M132.476 160.495H92.9876C91.9961 160.495 91.1924 161.296 91.1924 162.284V174.812C91.1924 175.8 91.9961 176.601 92.9876 176.601H132.476C133.468 176.601 134.271 175.8 134.271 174.812V162.284C134.271 161.296 133.468 160.495 132.476 160.495Z" fill="#E8A615"/>
    <path d="M127.09 113.251V118.441C127.09 119.628 126.617 120.765 125.776 121.605C124.934 122.444 123.793 122.916 122.602 122.916H119.015C120.205 122.915 121.345 122.443 122.186 121.603C123.027 120.764 123.5 119.627 123.5 118.441V113.251H127.09Z" fill="#B7791D"/>
    <path d="M93.8844 105.916H84.9178C79.0226 105.916 73.1852 104.759 67.739 102.51C62.2928 100.262 57.3445 96.9662 53.1768 92.8117C49.009 88.6573 45.7034 83.7254 43.4489 78.2977C41.1944 72.87 40.035 67.0529 40.0371 61.1787V45.9671C40.0367 45.497 40.1293 45.0314 40.3095 44.597C40.4898 44.1626 40.7542 43.7678 41.0876 43.4352C41.4211 43.1027 41.817 42.8389 42.2528 42.6589C42.6886 42.4789 43.1558 42.3862 43.6276 42.3862H73.2425V49.5448H47.218V61.1787C47.2252 71.02 51.1039 80.4663 58.0217 87.4902C64.9394 94.5141 74.3448 98.5558 84.2193 98.7479L93.8844 105.916Z" fill="#E8A615"/>
    <path d="M156.708 35.231V38.8087C156.708 82.2924 137.018 117.544 112.732 117.544C88.4455 117.544 68.7549 82.2924 68.7549 38.8087V35.231H156.708Z" fill="#E8A615"/>
    <path d="M69.1595 49.5448H65.5691C65.3921 47.1933 65.273 44.8071 65.2119 42.3862H68.7992C68.8624 44.805 68.9825 47.1912 69.1595 49.5448Z" fill="#B7791D"/>
    <path d="M89.7219 105.916H86.1315C84.0345 103.6 82.1317 101.116 80.4424 98.4897C81.6909 98.6397 82.9462 98.7258 84.2035 98.748C85.8474 101.281 87.6928 103.678 89.7219 105.916Z" fill="#B7791D"/>
    <path d="M127.09 113.251V115.043C122.586 117.824 117.757 119.336 112.732 119.336C107.706 119.336 102.877 117.824 98.373 115.043V113.251C102.877 116.035 107.706 117.547 112.732 117.547C117.757 117.547 122.586 116.035 127.09 113.251Z" fill="#B7791D"/>
    <path d="M156.708 35.231V38.8087C156.708 80.935 138.228 115.339 114.988 117.449C137.568 115.311 145.931 80.9161 145.931 38.8087V35.231H156.708Z" fill="#B7791D"/>
    <path d="M161.193 34.3365C161.195 34.9241 161.081 35.5063 160.856 36.0496C160.632 36.593 160.301 37.0866 159.884 37.5023C159.468 37.9179 158.972 38.2473 158.427 38.4715C157.882 38.6957 157.298 38.8103 156.708 38.8086H68.7549C68.1553 38.8245 67.5586 38.7205 66.9999 38.5028C66.4413 38.2851 65.9321 37.9581 65.5024 37.5411C65.0727 37.1241 64.7311 36.6256 64.4979 36.0749C64.2647 35.5243 64.1445 34.9326 64.1445 34.3349C64.1445 33.7372 64.2647 33.1456 64.4979 32.5949C64.7311 32.0442 65.0727 31.5457 65.5024 31.1287C65.9321 30.7117 66.4413 30.3847 66.9999 30.167C67.5586 29.9493 68.1553 29.8453 68.7549 29.8612H156.708C157.298 29.8616 157.881 29.9777 158.426 30.2028C158.97 30.4279 159.464 30.7577 159.881 31.1733C160.297 31.5889 160.628 32.0821 160.853 32.6248C161.078 33.1676 161.194 33.7492 161.193 34.3365Z" fill="#E8A615"/>
    <path d="M156.709 38.8086C156.709 40.0085 156.69 41.199 156.661 42.3863H68.7994C68.7709 41.199 68.752 40.0085 68.752 38.8086H156.709Z" fill="#B7791D"/>
    <path d="M161.193 34.3364C161.195 34.924 161.08 35.5062 160.856 36.0495C160.631 36.5928 160.301 37.0865 159.884 37.5022C159.467 37.9178 158.972 38.2472 158.427 38.4714C157.882 38.6956 157.297 38.8102 156.708 38.8085H146.834C148.004 38.7776 149.116 38.2927 149.932 37.4571C150.749 36.6215 151.206 35.5012 151.206 34.3348C151.206 33.1684 150.749 32.0482 149.932 31.2125C149.116 30.3769 148.004 29.892 146.834 29.8611H156.708C157.297 29.8615 157.881 29.9776 158.425 30.2027C158.969 30.4278 159.464 30.7576 159.88 31.1732C160.297 31.5887 160.627 32.082 160.852 32.6247C161.077 33.1675 161.193 33.7491 161.193 34.3364Z" fill="#B7791D"/>
    <path d="M134.27 162.284V174.812C134.269 175.286 134.079 175.74 133.743 176.075C133.407 176.41 132.951 176.599 132.475 176.601H96.8457C104.096 176.456 127.987 174.919 127.987 160.495H132.475C132.951 160.497 133.407 160.686 133.743 161.021C134.079 161.356 134.269 161.81 134.27 162.284Z" fill="#B7791D"/>
    <path d="M92.9873 170.324V163.018C92.9869 162.922 93.0056 162.826 93.0422 162.737C93.0789 162.648 93.1328 162.567 93.201 162.499C93.2691 162.431 93.3501 162.377 93.4392 162.34C93.5284 162.303 93.624 162.284 93.7206 162.284H109.814C109.814 162.284 97.0266 163.626 92.9873 170.324Z" fill="#FFCC66"/>
    <path d="M84.2383 163.178V155.859C84.2383 155.665 84.3154 155.479 84.4529 155.341C84.5903 155.204 84.7768 155.126 84.9715 155.125H101.065C101.065 155.125 88.2744 156.467 84.2383 163.178Z" fill="#4E5868"/>
    <path d="M112.731 114.863C102.984 114.863 75.9543 94.3639 72.6768 45.967H83.3375C86.024 105.182 112.731 114.863 112.731 114.863Z" fill="#FFCC66"/>
    <path d="M93.8848 149.759C93.8848 149.759 106.448 141.706 106.448 130.075V149.759H93.8848Z" fill="#FFCC66"/>
    <path d="M70.5494 31.6499V34.3363H66.0645C66.0645 33.6249 66.3476 32.9426 66.8519 32.439C67.3561 31.9353 68.0402 31.6516 68.7541 31.6499H70.5494Z" fill="#FFCC66"/>
    <path d="M159.353 42.3862C159.29 44.805 159.173 47.1922 158.987 49.5448H151.322L152.22 42.3862H159.353Z" fill="#B7791D"/>
    <path d="M144.043 98.5969C142.369 101.18 140.493 103.627 138.433 105.916H134.271L137.447 102.66L141.24 98.7481C142.185 98.7292 143.12 98.6757 144.043 98.5969Z" fill="#B7791D"/>
  </g>
  <path d="M181 19.8771C185.505 12.3262 196.281 8.17794 204.438 6.39773" stroke="white" stroke-opacity="0.65" stroke-width="2.53584" stroke-linecap="round"/>
  <path d="M196.413 67.0535C206.677 67.5434 216.691 70.8686 226.843 73.8157" stroke="white" stroke-opacity="0.65" stroke-width="2.53584" stroke-linecap="round"/>
  <path d="M181.423 105.958C190.761 110.854 197.414 117.215 203.119 125.966" stroke="white" stroke-opacity="0.65" stroke-width="2.53584" stroke-linecap="round"/>
  <path d="M44.4079 26.0333C41.0164 17.1578 30.5563 12.7931 25.0488 9.57446" stroke="white" stroke-opacity="0.65" stroke-width="2.53584" stroke-linecap="round"/>
  <path d="M29.0377 67.8987C19.9635 67.9984 10.7843 68.8007 2 71.1432" stroke="white" stroke-opacity="0.65" stroke-width="2.53584" stroke-linecap="round"/>
  <path d="M44.194 104.876C40.5593 106.462 37.2226 110.652 34.6716 113.529C31.1249 117.528 28.2284 121.843 25.752 126.507" stroke="white" stroke-opacity="0.65" stroke-width="2.53584" stroke-linecap="round"/>
  <defs>
    <clipPath id="clip0_139_3424">
      <rect width="145.388" height="163.139" fill="white" transform="translate(40.0371 29.8611)"/>
    </clipPath>
  </defs>
</svg>
