<svg width="40" height="40" viewBox="0 0 40 40" fill="none" xmlns="http://www.w3.org/2000/svg">
  <path d="M28.3333 30.7167H21.6666L14.2499 35.65C13.9996 35.8168 13.7087 35.9126 13.4083 35.9271C13.1078 35.9416 12.809 35.8742 12.5438 35.7322C12.2787 35.5902 12.057 35.3789 11.9025 35.1208C11.748 34.8627 11.6665 34.5675 11.6666 34.2667V30.7167C6.66659 30.7167 3.33325 27.3833 3.33325 22.3833V12.3833C3.33325 7.38332 6.66659 4.04999 11.6666 4.04999H28.3333C33.3333 4.04999 36.6666 7.38332 36.6666 12.3833V22.3833C36.6666 27.3833 33.3333 30.7167 28.3333 30.7167Z" stroke="black" stroke-width="1.5" stroke-miterlimit="10" stroke-linecap="round" stroke-linejoin="round"/>
  <path d="M20.0001 18.9333V18.5833C20.0001 17.45 20.7001 16.85 21.4001 16.3667C22.0834 15.9 22.7667 15.3 22.7667 14.2C22.7667 12.6667 21.5334 11.4333 20.0001 11.4333C18.4667 11.4333 17.2334 12.6667 17.2334 14.2M19.9917 22.9167H20.0084" stroke="black" stroke-width="1.5" stroke-linecap="round" stroke-linejoin="round"/>
</svg>
