<svg width="276" height="50" viewBox="0 0 276 50" fill="none" xmlns="http://www.w3.org/2000/svg">
  <path d="M103.068 28.0754L99.7399 31.7051L103.068 35.3427L106.404 31.7051L103.068 28.0754Z" fill="url(#paint0_linear_27_7585)"/>
  <path d="M114.19 25.6526C113.502 25.6284 112.827 25.4679 112.201 25.1803C111.576 24.8927 111.013 24.4837 110.546 23.9768L95.2976 7.34538C94.9486 6.96364 94.5247 6.65862 94.0527 6.44949C93.5806 6.24035 93.0706 6.13164 92.5547 6.13019H87.4957L106.862 27.2729C108.639 29.2441 111.116 30.4328 113.759 30.5814C116.401 30.7301 118.996 29.8268 120.98 28.0671C122.002 27.1302 122.819 25.9896 123.379 24.7178C123.938 23.446 124.228 22.0711 124.229 20.6807V9.06888L119.328 13.5405V20.7998C119.31 21.4636 119.162 22.1173 118.89 22.7227C118.619 23.3282 118.23 23.8733 117.747 24.3263C117.271 24.7727 116.711 25.1198 116.101 25.3475C115.49 25.5751 114.841 25.6789 114.19 25.6526Z" fill="url(#paint1_linear_27_7585)"/>
  <path d="M76.4292 0.783203H71.4019L95.3214 26.882L98.7916 23.3952L79.1801 1.99839C78.8292 1.61681 78.4039 1.31198 77.9306 1.1029C77.4573 0.893824 76.9462 0.784994 76.4292 0.783203Z" fill="url(#paint2_linear_27_7585)"/>
  <path d="M113.58 6.13019C113.063 6.13102 112.552 6.23942 112.078 6.44856C111.605 6.65769 111.18 6.96304 110.829 7.34538L95.5814 23.9768C95.1139 24.4837 94.5513 24.8927 93.9259 25.1803C93.3005 25.4679 92.6247 25.6284 91.9373 25.6526C91.2813 25.6831 90.6259 25.5815 90.0096 25.3537C89.3933 25.1259 88.8285 24.7766 88.3486 24.3263C87.8654 23.8733 87.4767 23.3282 87.2053 22.7227C86.9339 22.1173 86.7851 21.4636 86.7676 20.7998V13.5405L81.8667 9.06888V20.641C81.8605 22.6717 82.4708 24.6561 83.6162 26.3293C84.7615 28.0025 86.3875 29.285 88.2771 30.0056C90.1667 30.7262 92.23 30.8507 94.1918 30.3624C96.1537 29.8741 97.9207 28.7964 99.257 27.2729L118.608 6.13019H113.58Z" fill="url(#paint3_linear_27_7585)"/>
  <path d="M129.706 0.783203C129.19 0.784655 128.68 0.893362 128.208 1.10249C127.736 1.31163 127.312 1.61666 126.963 1.99839L107.352 23.3873L110.822 26.874L134.734 0.783203H129.706Z" fill="url(#paint4_linear_27_7585)"/>
  <path d="M21.2066 5.01746H16.3847L5.75292 15.8588H4.6937V5.01746H0.8125V30.0599H4.6937V19.5203H6.03749L16.7483 30.0599H22.0049L9.04917 17.5744L21.2066 5.01746Z" fill="#03032D"/>
  <path d="M64.5007 4.46287C61.924 4.40932 59.3897 5.12729 57.2203 6.5254C55.0509 7.92352 53.3446 9.93856 52.3185 12.3141C51.2924 14.6896 50.9929 17.3181 51.4581 19.8652C51.9234 22.4122 53.1323 24.7626 54.9311 26.6171C56.7299 28.4717 59.0372 29.7466 61.5593 30.2795C64.0815 30.8124 66.7044 30.5793 69.0942 29.6099C71.4841 28.6404 73.5328 26.9784 74.9797 24.8354C76.4266 22.6924 77.2063 20.1654 77.2194 17.5758C77.2615 15.8703 76.9638 14.1735 76.3437 12.5854C75.7237 10.9972 74.7938 9.54959 73.6087 8.32781C72.4237 7.10602 71.0074 6.13469 69.4433 5.47095C67.8791 4.80721 66.1987 4.46447 64.5007 4.46287ZM64.5007 26.781C59.5998 26.781 55.7582 22.8098 55.7582 17.544C55.7582 12.2782 59.5998 8.24346 64.5007 8.24346C69.4016 8.24346 73.2828 12.2147 73.2828 17.544C73.2828 22.8734 69.4333 26.8128 64.5007 26.8128V26.781Z" fill="#03032D"/>
  <path d="M136.18 5.01746H132.299V30.0599H149.46V26.4381H136.18V5.01746Z" fill="#03032D"/>
  <path d="M185.244 5.0155H176.747V30.0579H185.244C193.513 30.0579 198.682 24.8239 198.682 17.5407C198.682 10.2575 193.513 5.0155 185.244 5.0155ZM185.244 26.46H180.628V8.64518H185.244C191.157 8.64518 194.73 12.3463 194.73 17.5407C194.73 22.735 191.157 26.4362 185.244 26.4362V26.46Z" fill="#03032D"/>
  <path d="M235.645 19.4647H248.751V15.8827H235.645V8.64714H249.834V5.01746H231.764V30.0599H249.873V26.4381H235.645V19.4647Z" fill="#03032D"/>
  <path d="M157.555 19.4647H170.653V15.8827H157.555V8.64714H171.744V5.01746H153.673V30.0599H171.783V26.4381H157.555V19.4647Z" fill="#03032D"/>
  <path d="M267.572 19.3757C271.801 18.9468 274.425 16.1987 274.425 12.2275C274.425 7.97038 271.342 5.07935 266.441 5.07935H254.845V30.1218H258.726V19.463H263.208L270.884 30.0582H275.389L267.572 19.3757ZM258.726 15.881V8.63755H266.504C269.034 8.63755 270.544 10.1545 270.544 12.2434C270.544 14.3323 269.034 15.881 266.504 15.881H258.726Z" fill="#03032D"/>
  <path d="M43.4818 23.9442L29.4273 5.01746H25.3485V30.0599H29.2613V11.1172L43.3396 30.0599H47.3709V5.01746H43.4818V23.9442Z" fill="#03032D"/>
  <path d="M213.693 15.8813V19.5507H223.345C222.618 23.8872 219.464 26.8418 214.997 26.8418C209.954 26.8418 206.073 22.8706 206.073 17.573C206.073 12.2754 209.883 8.30421 214.768 8.30421C216.196 8.2322 217.619 8.52693 218.903 9.16059C220.186 9.79425 221.288 10.746 222.104 11.9259H226.349C224.617 7.07314 219.969 4.46008 214.76 4.46008C211.372 4.55735 208.156 5.9819 205.798 8.42951C203.441 10.8771 202.129 14.1538 202.144 17.5597C202.158 20.9657 203.498 24.231 205.876 26.6584C208.254 29.0857 211.482 30.4826 214.871 30.5509C222.096 30.5509 227.139 24.9038 227.139 17.5412C227.139 17.1044 227.139 16.5087 227.068 15.8495L213.693 15.8813Z" fill="#03032D"/>
  <path d="M140.014 43.9815L141.002 44.2198C140.741 45.1152 140.189 45.8969 139.434 46.4397C138.678 46.9826 137.764 47.2552 136.836 47.2141C135.624 47.2141 134.462 46.7304 133.605 45.8695C132.749 45.0086 132.267 43.8409 132.267 42.6234C132.267 41.4059 132.749 40.2382 133.605 39.3773C134.462 38.5163 135.624 38.0327 136.836 38.0327C137.754 37.99 138.66 38.2534 139.414 38.7821C140.167 39.3107 140.726 40.0748 141.002 40.9555L140.014 41.2494C139.809 40.5755 139.388 39.989 138.815 39.5821C138.243 39.1752 137.552 38.971 136.852 39.0017C135.926 39.0453 135.053 39.4454 134.413 40.1191C133.773 40.7928 133.416 41.6882 133.416 42.6194C133.416 43.5506 133.773 44.446 134.413 45.1197C135.053 45.7934 135.926 46.1936 136.852 46.2372C137.553 46.2673 138.245 46.062 138.817 45.6536C139.39 45.2451 139.811 44.6569 140.014 43.9815Z" fill="#03032D"/>
  <path d="M148.756 43.1486V47.0404H147.76V43.3313C147.789 43.0777 147.765 42.8208 147.688 42.5774C147.612 42.334 147.485 42.1094 147.317 41.9184C147.148 41.7274 146.942 41.5741 146.71 41.4686C146.479 41.3631 146.228 41.3077 145.974 41.306C144.63 41.306 143.737 42.2273 143.737 43.919V47.0404H142.749V37.5095H143.737V41.584C144.003 41.1847 144.366 40.861 144.793 40.6439C145.219 40.4269 145.694 40.324 146.172 40.345C146.531 40.3364 146.888 40.4047 147.22 40.5455C147.551 40.6862 147.849 40.8961 148.093 41.1612C148.338 41.4263 148.523 41.7406 148.638 42.0832C148.752 42.4259 148.792 42.7891 148.756 43.1486Z" fill="#03032D"/>
  <path d="M156.891 47.0405H155.903V46.0159C155.598 46.4017 155.208 46.7108 154.763 46.919C154.319 47.1271 153.832 47.2285 153.342 47.2152C152.468 47.1728 151.643 46.7941 151.04 46.1575C150.436 45.521 150.099 44.6753 150.099 43.796C150.099 42.9166 150.436 42.071 151.04 41.4344C151.643 40.7978 152.468 40.4191 153.342 40.3768C153.832 40.3634 154.319 40.4648 154.763 40.673C155.208 40.8811 155.598 41.1903 155.903 41.5761V40.5356H156.891V47.0405ZM155.903 43.8C155.914 43.477 155.86 43.1551 155.747 42.8528C155.633 42.5504 155.461 42.2736 155.241 42.0382C155.021 41.8028 154.756 41.6134 154.463 41.481C154.17 41.3485 153.853 41.2756 153.532 41.2663C152.865 41.2663 152.226 41.5324 151.754 42.0061C151.283 42.4797 151.018 43.1222 151.018 43.792C151.018 44.4619 151.283 45.1043 151.754 45.5779C152.226 46.0516 152.865 46.3177 153.532 46.3177C153.852 46.3095 154.168 46.2377 154.46 46.1066C154.753 45.9755 155.017 45.7876 155.238 45.5537C155.458 45.3198 155.63 45.0444 155.744 44.7435C155.859 44.4425 155.912 44.1219 155.903 43.8Z" fill="#03032D"/>
  <path d="M160.352 38.6144C160.352 38.7041 160.335 38.7928 160.3 38.8754C160.265 38.9579 160.214 39.0325 160.15 39.0948C160.085 39.1571 160.009 39.2057 159.926 39.2378C159.843 39.2699 159.754 39.2848 159.665 39.2816C159.576 39.2848 159.487 39.2699 159.404 39.2377C159.322 39.2055 159.246 39.1568 159.183 39.0944C159.119 39.032 159.069 38.9573 159.035 38.8748C159.001 38.7923 158.984 38.7037 158.985 38.6144C158.985 38.5251 159.003 38.4367 159.037 38.3542C159.071 38.2718 159.121 38.197 159.184 38.1342C159.248 38.0714 159.323 38.0219 159.405 37.9884C159.488 37.955 159.576 37.9383 159.665 37.9393C159.844 37.9393 160.017 38.0099 160.146 38.1361C160.274 38.2622 160.348 38.4339 160.352 38.6144ZM159.167 47.081V40.5762H160.171V47.081H159.167Z" fill="#03032D"/>
  <path d="M168.455 43.1502V47.042H167.459V43.3329C167.488 43.0793 167.463 42.8224 167.387 42.579C167.31 42.3356 167.184 42.111 167.015 41.92C166.847 41.729 166.64 41.5757 166.409 41.4702C166.177 41.3647 165.926 41.3093 165.672 41.3076C164.329 41.3076 163.443 42.2289 163.443 43.9206V47.042H162.447V40.5372H163.443V41.6173C163.707 41.2182 164.069 40.8943 164.494 40.6772C164.92 40.4601 165.394 40.3572 165.87 40.3783C166.227 40.3702 166.581 40.4378 166.91 40.5767C167.239 40.7155 167.535 40.9224 167.779 41.184C168.023 41.4456 168.209 41.7559 168.325 42.0947C168.442 42.4335 168.486 42.7932 168.455 43.1502Z" fill="#03032D"/>
  <path d="M176.368 44.0012H170.834C170.846 44.6113 171.091 45.1936 171.517 45.6281C171.944 46.0626 172.52 46.316 173.127 46.3363C173.594 46.3655 174.058 46.2452 174.453 45.9926C174.848 45.74 175.153 45.3682 175.324 44.9305L176.21 45.1449C175.988 45.7791 175.568 46.324 175.012 46.6978C174.456 47.0715 173.795 47.254 173.127 47.2179C172.252 47.1673 171.431 46.7803 170.833 46.1373C170.235 45.4943 169.907 44.6445 169.916 43.7646C169.925 42.8846 170.271 42.042 170.882 41.4116C171.493 40.7813 172.323 40.4116 173.198 40.3795C173.619 40.3793 174.036 40.4638 174.425 40.6279C174.813 40.792 175.165 41.0325 175.459 41.3351C175.754 41.6377 175.985 41.9964 176.14 42.3902C176.294 42.7839 176.369 43.2047 176.36 43.6279L176.368 44.0012ZM170.89 43.2467H175.364C175.324 42.7039 175.079 42.1969 174.679 41.8294C174.279 41.4619 173.755 41.2614 173.214 41.269C172.654 41.2607 172.11 41.4565 171.683 41.8201C171.255 42.1837 170.974 42.6905 170.89 43.2467Z" fill="#03032D"/>
  <path d="M184.13 47.0416H183.142V46.017C182.837 46.4028 182.447 46.712 182.002 46.9201C181.558 47.1283 181.071 47.2297 180.581 47.2163C179.707 47.174 178.882 46.7953 178.278 46.1587C177.675 45.5221 177.338 44.6765 177.338 43.7971C177.338 42.9178 177.675 42.0722 178.278 41.4356C178.882 40.799 179.707 40.4203 180.581 40.3779C181.071 40.3646 181.558 40.466 182.002 40.6741C182.447 40.8823 182.837 41.1915 183.142 41.5772V37.5425H184.13V47.0416ZM183.142 43.8011C183.152 43.4781 183.099 43.1562 182.986 42.8539C182.872 42.5516 182.7 42.2748 182.48 42.0394C182.26 41.8039 181.995 41.6146 181.702 41.4821C181.408 41.3497 181.092 41.2767 180.77 41.2675C180.104 41.2675 179.464 41.5336 178.993 42.0072C178.522 42.4809 178.257 43.1233 178.257 43.7932C178.257 44.463 178.522 45.1054 178.993 45.5791C179.464 46.0527 180.104 46.3188 180.77 46.3188C181.091 46.3106 181.407 46.2389 181.699 46.1078C181.992 45.9767 182.256 45.7888 182.477 45.5549C182.697 45.3209 182.869 45.0456 182.983 44.7446C183.097 44.4437 183.151 44.123 183.142 43.8011Z" fill="#03032D"/>
  <path d="M193.331 46.6999C192.905 47.0346 192.379 47.2163 191.837 47.2162C191.546 47.239 191.253 47.197 190.98 47.093C190.707 46.9891 190.46 46.8258 190.257 46.6149C190.054 46.404 189.9 46.1506 189.805 45.8729C189.711 45.5951 189.679 45.2999 189.711 45.0082V41.3864H188.312V40.5366H189.711V38.4636H190.715V40.5366H193.015V41.3864H190.715V44.9685C190.691 45.1369 190.705 45.3085 190.755 45.471C190.805 45.6334 190.89 45.7829 191.004 45.9087C191.118 46.0345 191.258 46.1336 191.414 46.199C191.571 46.2643 191.739 46.2944 191.908 46.2869C192.304 46.2691 192.684 46.1306 192.999 45.8898L193.331 46.6999Z" fill="#03032D"/>
  <path d="M200.532 43.7852C200.54 44.4658 200.346 45.1333 199.975 45.7029C199.604 46.2726 199.073 46.7185 198.45 46.9841C197.826 47.2496 197.138 47.3228 196.473 47.1943C195.807 47.0658 195.195 46.7414 194.714 46.2623C194.233 45.7833 193.904 45.1713 193.77 44.5041C193.636 43.837 193.702 43.1448 193.961 42.5157C194.219 41.8865 194.658 41.3489 195.222 40.971C195.785 40.5932 196.448 40.3922 197.125 40.3938C197.572 40.3842 198.017 40.4651 198.433 40.6317C198.848 40.7983 199.226 41.0472 199.544 41.3637C199.862 41.6801 200.113 42.0575 200.283 42.4736C200.453 42.8896 200.537 43.3356 200.532 43.7852ZM199.552 43.7852C199.552 43.1343 199.294 42.51 198.836 42.0498C198.378 41.5895 197.757 41.331 197.109 41.331C196.461 41.331 195.84 41.5895 195.382 42.0498C194.924 42.51 194.667 43.1343 194.667 43.7852C194.667 44.4361 194.924 45.0603 195.382 45.5206C195.84 45.9808 196.461 46.2394 197.109 46.2394C197.757 46.2394 198.378 45.9808 198.836 45.5206C199.294 45.0603 199.552 44.4361 199.552 43.7852Z" fill="#03032D"/>
  <path d="M205.275 47.0422V38.2023H206.303V47.0422H205.275Z" fill="#03032D"/>
  <path d="M214.452 43.1502V47.042H213.456V43.3329C213.485 43.0793 213.461 42.8224 213.384 42.579C213.308 42.3356 213.181 42.111 213.013 41.92C212.844 41.729 212.638 41.5757 212.406 41.4702C212.175 41.3647 211.924 41.3093 211.67 41.3076C210.326 41.3076 209.441 42.2289 209.441 43.9206V47.042H208.437V40.5372H209.433V41.6173C209.697 41.2182 210.059 40.8943 210.484 40.6772C210.909 40.4601 211.383 40.3572 211.86 40.3783C212.217 40.3691 212.572 40.4359 212.902 40.5742C213.232 40.7125 213.529 40.9193 213.774 41.181C214.019 41.4427 214.206 41.7534 214.323 42.0927C214.439 42.4321 214.484 42.7925 214.452 43.1502Z" fill="#03032D"/>
  <path d="M220.334 46.6999C219.907 47.0346 219.381 47.2163 218.84 47.2162C218.548 47.239 218.256 47.197 217.983 47.093C217.709 46.9891 217.463 46.8258 217.259 46.6149C217.056 46.404 216.902 46.1506 216.808 45.8729C216.713 45.5951 216.681 45.2999 216.713 45.0082V41.3864H215.314V40.5366H216.713V38.4636H217.717V40.5366H220.017V41.3864H217.717V44.9685C217.694 45.1369 217.708 45.3085 217.758 45.471C217.808 45.6334 217.893 45.7829 218.007 45.9087C218.12 46.0345 218.261 46.1336 218.417 46.199C218.573 46.2643 218.742 46.2944 218.911 46.2869C219.306 46.2691 219.687 46.1306 220.002 45.8898L220.334 46.6999Z" fill="#03032D"/>
  <path d="M227.187 44.0012H221.654C221.665 44.6127 221.911 45.1961 222.339 45.6308C222.767 46.0654 223.345 46.318 223.954 46.3363C224.421 46.3655 224.885 46.2452 225.28 45.9926C225.675 45.74 225.98 45.3682 226.151 44.9305L227.037 45.1449C226.815 45.7791 226.395 46.324 225.839 46.6978C225.283 47.0715 224.622 47.254 223.954 47.2179C223.08 47.1681 222.258 46.782 221.659 46.1397C221.061 45.4974 220.732 44.6482 220.74 43.7684C220.748 42.8885 221.093 42.0456 221.703 41.4146C222.313 40.7835 223.142 40.4129 224.017 40.3795C224.438 40.3793 224.855 40.4638 225.244 40.6279C225.632 40.792 225.984 41.0325 226.278 41.3351C226.573 41.6377 226.804 41.9964 226.959 42.3902C227.114 42.7839 227.188 43.2047 227.179 43.6279L227.187 44.0012ZM221.701 43.2467H226.183C226.143 42.7025 225.897 42.1944 225.495 41.8267C225.094 41.4589 224.568 41.2594 224.025 41.269C223.465 41.2607 222.921 41.4565 222.494 41.8201C222.067 42.1837 221.785 42.6905 221.701 43.2467Z" fill="#03032D"/>
  <path d="M228.768 47.0404V37.5095H229.78V47.0404H228.768Z" fill="#03032D"/>
  <path d="M231.929 47.0404V37.5095H232.941V47.0404H231.929Z" fill="#03032D"/>
  <path d="M236.388 38.6144C236.388 38.7048 236.37 38.7942 236.335 38.8773C236.299 38.9604 236.248 39.0354 236.183 39.0978C236.118 39.1602 236.041 39.2086 235.956 39.2402C235.872 39.2718 235.782 39.2859 235.693 39.2816C235.604 39.2849 235.516 39.2699 235.434 39.2377C235.351 39.2054 235.276 39.1565 235.213 39.094C235.15 39.0315 235.101 38.9567 235.067 38.8742C235.034 38.7917 235.018 38.7033 235.021 38.6144C235.021 38.4354 235.092 38.2637 235.218 38.1371C235.344 38.0104 235.514 37.9393 235.693 37.9393C235.874 37.9372 236.048 38.0069 236.178 38.1333C236.309 38.2597 236.384 38.4325 236.388 38.6144ZM235.203 47.081V40.5762H236.206V47.081H235.203Z" fill="#03032D"/>
  <path d="M244.458 46.5549C244.458 48.4531 243.162 49.5889 241.217 49.5889C239.636 49.5889 238.569 48.9535 238.055 47.8971L238.893 47.3173C239.092 47.7551 239.42 48.1204 239.833 48.3635C240.246 48.6066 240.724 48.7156 241.201 48.6755C241.503 48.6978 241.805 48.6548 242.088 48.5496C242.372 48.4443 242.629 48.2792 242.843 48.0653C243.058 47.8515 243.224 47.594 243.331 47.3101C243.437 47.0262 243.482 46.7226 243.462 46.4199V45.6256C243.173 45.982 242.803 46.2643 242.384 46.4493C241.965 46.6344 241.508 46.7168 241.051 46.6899C240.601 46.7583 240.142 46.7283 239.704 46.6018C239.267 46.4754 238.862 46.2555 238.516 45.9573C238.171 45.659 237.894 45.2894 237.705 44.8737C237.515 44.458 237.416 44.006 237.416 43.5487C237.416 43.0913 237.515 42.6393 237.705 42.2236C237.894 41.8079 238.171 41.4383 238.516 41.1401C238.862 40.8418 239.267 40.622 239.704 40.4955C240.142 40.3691 240.601 40.339 241.051 40.4074C241.507 40.3809 241.963 40.4627 242.382 40.6462C242.801 40.8297 243.171 41.1098 243.462 41.4638V40.5663H244.427L244.458 46.5549ZM243.478 43.5447C243.443 42.9521 243.185 42.3951 242.755 41.9877C242.325 41.5804 241.757 41.3535 241.166 41.3535C240.575 41.3535 240.006 41.5804 239.577 41.9877C239.147 42.3951 238.888 42.9521 238.854 43.5447C238.888 44.1374 239.147 44.6944 239.577 45.1017C240.006 45.509 240.575 45.7359 241.166 45.7359C241.757 45.7359 242.325 45.509 242.755 45.1017C243.185 44.6944 243.443 44.1374 243.478 43.5447Z" fill="#03032D"/>
  <path d="M252.521 44.0012H246.988C247 44.6127 247.245 45.1961 247.673 45.6308C248.102 46.0654 248.68 46.318 249.288 46.3363C249.754 46.3638 250.217 46.2427 250.61 45.9902C251.003 45.7377 251.307 45.3668 251.478 44.9305L252.363 45.1449C252.143 45.7784 251.724 46.3231 251.17 46.6969C250.615 47.0708 249.955 47.2536 249.288 47.2179C248.414 47.1681 247.592 46.782 246.994 46.1397C246.395 45.4974 246.066 44.6482 246.074 43.7684C246.082 42.8885 246.427 42.0456 247.037 41.4146C247.648 40.7835 248.476 40.4129 249.351 40.3795C249.773 40.3793 250.19 40.4638 250.578 40.6279C250.966 40.792 251.318 41.0325 251.613 41.3351C251.907 41.6377 252.139 41.9964 252.293 42.3902C252.448 42.7839 252.523 43.2047 252.513 43.6279L252.521 44.0012ZM247.035 43.2467H251.517C251.473 42.7039 251.226 42.198 250.826 41.831C250.425 41.464 249.901 41.2632 249.359 41.269C248.799 41.2607 248.256 41.4565 247.828 41.8201C247.401 42.1837 247.119 42.6905 247.035 43.2467Z" fill="#03032D"/>
  <path d="M260.11 43.1502V47.042H259.114V43.3329C259.143 43.0793 259.118 42.8224 259.042 42.579C258.965 42.3356 258.838 42.111 258.67 41.92C258.501 41.729 258.295 41.5757 258.064 41.4702C257.832 41.3647 257.581 41.3093 257.327 41.3076C255.983 41.3076 255.098 42.2289 255.098 43.9206V47.042H254.102V40.5372H255.074V41.6173C255.338 41.2182 255.7 40.8943 256.126 40.6772C256.551 40.4601 257.025 40.3572 257.501 40.3783C257.86 40.3668 258.217 40.4319 258.549 40.5692C258.88 40.7065 259.179 40.9129 259.426 41.1749C259.672 41.4368 259.861 41.7483 259.979 42.0888C260.097 42.4293 260.141 42.7911 260.11 43.1502Z" fill="#03032D"/>
  <path d="M267.018 44.8169L267.935 45.0631C267.738 45.7104 267.331 46.2732 266.78 46.6629C266.229 47.0526 265.565 47.247 264.892 47.2155C264.018 47.1731 263.193 46.7944 262.589 46.1578C261.986 45.5212 261.649 44.6756 261.649 43.7963C261.649 42.9169 261.986 42.0713 262.589 41.4347C263.193 40.7981 264.018 40.4194 264.892 40.3771C265.567 40.3564 266.23 40.5567 266.782 40.9478C267.334 41.3389 267.744 41.8996 267.951 42.5453L266.994 42.8313C266.865 42.3768 266.588 41.9792 266.206 41.7026C265.825 41.426 265.362 41.2864 264.892 41.3063C264.571 41.306 264.253 41.3711 263.958 41.4977C263.663 41.6244 263.396 41.8099 263.175 42.043C262.953 42.2762 262.781 42.5522 262.668 42.8542C262.556 43.1563 262.505 43.4781 262.52 43.8002C262.508 44.1211 262.559 44.4412 262.673 44.7414C262.786 45.0415 262.959 45.3156 263.181 45.547C263.402 45.7785 263.668 45.9626 263.962 46.0882C264.256 46.2139 264.572 46.2785 264.892 46.2783C265.357 46.3047 265.818 46.1757 266.203 45.9114C266.587 45.647 266.874 45.2622 267.018 44.8169Z" fill="#03032D"/>
  <path d="M275.421 44.0012H269.887C269.899 44.6127 270.145 45.1961 270.573 45.6308C271.001 46.0654 271.579 46.318 272.188 46.3363C272.654 46.365 273.117 46.2444 273.51 45.9918C273.904 45.7391 274.207 45.3675 274.377 44.9305L275.271 45.1449C275.048 45.7783 274.628 46.3225 274.072 46.6961C273.516 47.0697 272.855 47.2527 272.188 47.2179C271.313 47.1681 270.492 46.782 269.893 46.1397C269.295 45.4974 268.965 44.6482 268.974 43.7684C268.982 42.8885 269.327 42.0456 269.937 41.4146C270.547 40.7835 271.376 40.4129 272.251 40.3795C272.672 40.3793 273.089 40.4638 273.478 40.6279C273.866 40.792 274.218 41.0325 274.512 41.3351C274.807 41.6377 275.038 41.9964 275.193 42.3902C275.348 42.7839 275.422 43.2047 275.413 43.6279L275.421 44.0012ZM269.935 43.2467H274.417C274.377 42.7025 274.131 42.1944 273.729 41.8267C273.328 41.4589 272.802 41.2594 272.259 41.269C271.699 41.2607 271.155 41.4565 270.728 41.8201C270.301 42.1837 270.019 42.6905 269.935 43.2467Z" fill="#03032D"/>
  <defs>
    <linearGradient id="paint0_linear_27_7585" x1="103.068" y1="34.7709" x2="103.068" y2="4.45471" gradientUnits="userSpaceOnUse">
      <stop stop-color="#F607FF"/>
      <stop offset="0.04" stop-color="#E211FE"/>
      <stop offset="0.13" stop-color="#B727FB"/>
      <stop offset="0.22" stop-color="#9639F8"/>
      <stop offset="0.31" stop-color="#7E45F6"/>
      <stop offset="0.38" stop-color="#6F4CF5"/>
      <stop offset="0.45" stop-color="#6A4FF5"/>
      <stop offset="0.55" stop-color="#5C6EF3"/>
      <stop offset="0.76" stop-color="#40AEEF"/>
      <stop offset="0.92" stop-color="#2FD6EC"/>
      <stop offset="1" stop-color="#28E5EB"/>
    </linearGradient>
    <linearGradient id="paint1_linear_27_7585" x1="105.898" y1="34.7705" x2="105.898" y2="4.45434" gradientUnits="userSpaceOnUse">
      <stop stop-color="#F607FF"/>
      <stop offset="0.04" stop-color="#E211FE"/>
      <stop offset="0.13" stop-color="#B727FB"/>
      <stop offset="0.22" stop-color="#9639F8"/>
      <stop offset="0.31" stop-color="#7E45F6"/>
      <stop offset="0.38" stop-color="#6F4CF5"/>
      <stop offset="0.45" stop-color="#6A4FF5"/>
      <stop offset="0.55" stop-color="#5C6EF3"/>
      <stop offset="0.76" stop-color="#40AEEF"/>
      <stop offset="0.92" stop-color="#2FD6EC"/>
      <stop offset="1" stop-color="#28E5EB"/>
    </linearGradient>
    <linearGradient id="paint2_linear_27_7585" x1="85.1007" y1="34.7688" x2="85.1007" y2="4.4526" gradientUnits="userSpaceOnUse">
      <stop stop-color="#F607FF"/>
      <stop offset="0.04" stop-color="#E211FE"/>
      <stop offset="0.13" stop-color="#B727FB"/>
      <stop offset="0.22" stop-color="#9639F8"/>
      <stop offset="0.31" stop-color="#7E45F6"/>
      <stop offset="0.38" stop-color="#6F4CF5"/>
      <stop offset="0.45" stop-color="#6A4FF5"/>
      <stop offset="0.55" stop-color="#5C6EF3"/>
      <stop offset="0.76" stop-color="#40AEEF"/>
      <stop offset="0.92" stop-color="#2FD6EC"/>
      <stop offset="1" stop-color="#28E5EB"/>
    </linearGradient>
    <linearGradient id="paint3_linear_27_7585" x1="100.237" y1="34.7705" x2="100.237" y2="4.45434" gradientUnits="userSpaceOnUse">
      <stop stop-color="#F607FF"/>
      <stop offset="0.04" stop-color="#E211FE"/>
      <stop offset="0.13" stop-color="#B727FB"/>
      <stop offset="0.22" stop-color="#9639F8"/>
      <stop offset="0.31" stop-color="#7E45F6"/>
      <stop offset="0.38" stop-color="#6F4CF5"/>
      <stop offset="0.45" stop-color="#6A4FF5"/>
      <stop offset="0.55" stop-color="#5C6EF3"/>
      <stop offset="0.76" stop-color="#40AEEF"/>
      <stop offset="0.92" stop-color="#2FD6EC"/>
      <stop offset="1" stop-color="#28E5EB"/>
    </linearGradient>
    <linearGradient id="paint4_linear_27_7585" x1="121.043" y1="34.7688" x2="121.043" y2="4.4526" gradientUnits="userSpaceOnUse">
      <stop stop-color="#F607FF"/>
      <stop offset="0.04" stop-color="#E211FE"/>
      <stop offset="0.13" stop-color="#B727FB"/>
      <stop offset="0.22" stop-color="#9639F8"/>
      <stop offset="0.31" stop-color="#7E45F6"/>
      <stop offset="0.38" stop-color="#6F4CF5"/>
      <stop offset="0.45" stop-color="#6A4FF5"/>
      <stop offset="0.55" stop-color="#5C6EF3"/>
      <stop offset="0.76" stop-color="#40AEEF"/>
      <stop offset="0.92" stop-color="#2FD6EC"/>
      <stop offset="1" stop-color="#28E5EB"/>
    </linearGradient>
  </defs>
</svg>
