<svg width="159" height="159" viewBox="0 0 159 159" fill="none" xmlns="http://www.w3.org/2000/svg">
  <path fill-rule="evenodd" clip-rule="evenodd" d="M7.75586 40.7195H19.183C20.3582 40.7236 21.5199 40.9708 22.5957 41.4459C23.6715 41.921 24.6382 42.6137 25.4356 43.4807L66.9704 88.7827L72.1095 83.1792L44.337 52.8688H55.836C57.0086 52.8721 58.1679 53.1191 59.2409 53.5943C60.3139 54.0695 61.2773 54.7626 62.0706 55.63L79.7228 74.8777L97.375 55.63C98.1711 54.7613 99.1376 54.0674 100.214 53.5922C101.29 53.117 102.452 52.8707 103.628 52.8688H115.055L87.3206 83.1622L92.4859 88.7944L134.047 43.4807C134.84 42.6133 135.804 41.9202 136.877 41.445C137.95 40.9698 139.109 40.7228 140.281 40.7195H151.709L127.831 66.7653V85.9318C127.828 89.0912 127.17 92.2155 125.899 95.1053C124.627 97.9951 122.77 100.587 120.446 102.716C115.936 106.714 110.039 108.767 104.033 108.429C98.0265 108.091 92.3945 105.39 88.3568 100.911L79.7103 91.4746L71.071 100.911C68.0334 104.373 64.017 106.822 59.5578 107.931C55.0986 109.041 50.4086 108.758 46.1136 107.121C41.8185 105.483 38.1228 102.569 35.5194 98.7671C32.916 94.9651 31.5288 90.456 31.543 85.8415V66.6658L7.75586 40.7195ZM116.691 78.9165L100.772 96.2806C102.115 96.8561 103.552 97.1781 105.012 97.2295C106.492 97.2891 107.968 97.0534 109.356 96.5361C110.743 96.0187 112.015 95.23 113.098 94.2156C114.196 93.1863 115.079 91.9476 115.696 90.5719C116.313 89.1962 116.651 87.7108 116.691 86.2025V78.9165ZM42.6827 78.8166L58.6877 96.2744C57.3413 96.8538 55.8988 97.1779 54.4332 97.2295C52.9422 97.2988 51.4525 97.0679 50.0516 96.5503C48.6507 96.0327 47.367 95.2389 46.2761 94.2156C45.1778 93.1862 44.2944 91.9476 43.6775 90.5719C43.0605 89.1961 42.7223 87.7108 42.6827 86.2025V78.8166ZM79.7326 102.736L72.1683 110.984L79.7326 119.25L87.3148 110.984L79.7326 102.736Z" fill="url(#paint0_linear_139_2250)"/>
  <defs>
    <linearGradient id="paint0_linear_139_2250" x1="120.589" y1="117.945" x2="120.589" y2="49.0574" gradientUnits="userSpaceOnUse">
      <stop stop-color="#F607FF"/>
      <stop offset="0.04" stop-color="#E211FE"/>
      <stop offset="0.13" stop-color="#B727FB"/>
      <stop offset="0.22" stop-color="#9639F8"/>
      <stop offset="0.31" stop-color="#7E45F6"/>
      <stop offset="0.38" stop-color="#6F4CF5"/>
      <stop offset="0.45" stop-color="#6A4FF5"/>
      <stop offset="0.55" stop-color="#5C6EF3"/>
      <stop offset="0.76" stop-color="#40AEEF"/>
      <stop offset="0.92" stop-color="#2FD6EC"/>
      <stop offset="1" stop-color="#28E5EB"/>
    </linearGradient>
  </defs>
</svg>
