<svg width="481" height="237" viewBox="0 0 481 237" fill="none"
    xmlns="http://www.w3.org/2000/svg">
    <g style="mix-blend-mode:overlay">
        <path fill-rule="evenodd" clip-rule="evenodd" d="M0 0H38.1667C42.0917 0.0122815 45.9718 0.758611 49.5649 2.19241C53.158 3.62621 56.3869 5.71671 59.0503 8.33349L197.775 145.054L214.94 128.143L122.18 36.6667H160.587C164.504 36.6766 168.376 37.4221 171.959 38.8563C175.543 40.2905 178.761 42.3823 181.411 45.0001L240.368 103.089L299.325 45.0001C301.984 42.3782 305.212 40.2842 308.806 38.85C312.4 37.4158 316.283 36.6724 320.209 36.6667H358.376L265.745 128.091L282.998 145.09L421.811 8.33349C424.46 5.71565 427.678 3.62381 431.262 2.18963C434.846 0.755445 438.718 0.00995678 442.634 0H480.801L401.049 78.6066V136.451C401.041 145.986 398.843 155.415 394.597 164.136C390.35 172.858 384.147 180.68 376.385 187.105C361.32 199.173 341.625 205.367 321.564 204.348C301.503 203.328 282.692 195.177 269.206 181.659L240.326 153.178L211.47 181.659C201.325 192.106 187.91 199.497 173.016 202.846C158.123 206.194 142.458 205.34 128.113 200.399C113.767 195.457 101.423 186.662 92.7282 175.188C84.0329 163.713 79.3998 150.105 79.447 136.178V78.3041L0 0ZM363.843 115.279L310.675 167.684C315.158 169.42 319.958 170.392 324.836 170.547C329.776 170.727 334.707 170.016 339.342 168.454C343.978 166.893 348.226 164.513 351.841 161.451C355.509 158.345 358.46 154.606 360.52 150.455C362.581 146.303 363.71 141.82 363.843 137.268V115.279ZM116.653 114.975L170.111 167.664C165.614 169.413 160.796 170.392 155.9 170.547C150.92 170.756 145.944 170.059 141.266 168.497C136.587 166.935 132.299 164.54 128.655 161.451C124.987 158.345 122.037 154.606 119.976 150.455C117.915 146.303 116.786 141.82 116.653 137.268V114.975ZM240.401 187.163L215.136 212.054L240.401 237L265.725 212.054L240.401 187.163Z" fill="white"/>
    </g>
</svg>
