<svg width="34" height="33" viewBox="0 0 34 33" fill="none" xmlns="http://www.w3.org/2000/svg">
  <path d="M27.3277 11.8277C27.3277 14.0706 26.6626 16.1278 25.518 17.8448C23.8474 20.3197 21.2024 22.0676 18.1242 22.5162C17.5983 22.609 17.0569 22.6554 16.5001 22.6554C15.9432 22.6554 15.4018 22.609 14.8759 22.5162C11.7977 22.0676 9.15269 20.3197 7.48213 17.8448C6.33749 16.1278 5.67236 14.0706 5.67236 11.8277C5.67236 5.84152 10.5139 1 16.5001 1C22.4862 1 27.3277 5.84152 27.3277 11.8277Z" stroke="#292D32" stroke-width="2" stroke-linecap="round" stroke-linejoin="round"/>
  <path d="M30.808 26.4725L28.2558 27.0758C27.6835 27.215 27.2349 27.6481 27.1112 28.2204L26.5698 30.4942C26.2759 31.7317 24.6981 32.1029 23.8783 31.1284L16.5 22.6519L9.12167 31.1439C8.30186 32.1184 6.72411 31.7471 6.43022 30.5097L5.88883 28.2359C5.74962 27.6635 5.30105 27.215 4.74419 27.0912L2.19195 26.488C1.01638 26.2095 0.598736 24.7401 1.44948 23.8893L7.48205 17.8568C9.15261 20.3317 11.7977 22.0795 14.8759 22.5281C15.4018 22.6209 15.9432 22.6673 16.5 22.6673C17.0569 22.6673 17.5983 22.6209 18.1242 22.5281C21.2023 22.0795 23.8474 20.3317 25.518 17.8568L31.5505 23.8893C32.4013 24.7246 31.9836 26.1941 30.808 26.4725Z" stroke="#292D32" stroke-width="2" stroke-linecap="round" stroke-linejoin="round"/>
  <path d="M17.3973 7.15684L18.3099 8.98206C18.4336 9.22955 18.7585 9.47706 19.0524 9.52346L20.7075 9.80187C21.7593 9.97202 22.0068 10.7454 21.2488 11.5034L19.965 12.7872C19.7484 13.0038 19.6247 13.4214 19.702 13.7308L20.0733 15.324C20.3672 16.5769 19.702 17.0719 18.5883 16.4068L17.0415 15.4942C16.7631 15.324 16.299 15.324 16.0206 15.4942L14.4738 16.4068C13.3601 17.0564 12.6949 16.5769 12.9888 15.324L13.3601 13.7308C13.422 13.4369 13.3137 13.0038 13.0971 12.7872L11.8132 11.5034C11.0553 10.7454 11.3028 9.98749 12.3546 9.80187L14.0098 9.52346C14.2882 9.47706 14.613 9.22955 14.7368 8.98206L15.6494 7.15684C16.098 6.16688 16.9023 6.16688 17.3973 7.15684Z" stroke="#292D32" stroke-width="2" stroke-linecap="round" stroke-linejoin="round"/>
</svg>
