<svg width="189" height="189" viewBox="0 0 189 189" fill="none" xmlns="http://www.w3.org/2000/svg">
  <path d="M183.372 94.8194C183.374 114.376 176.915 133.386 165 148.894C153.085 164.402 136.382 175.54 117.485 180.578C110.201 182.503 100.576 159.143 92.6903 159.143C82.6021 159.143 74.8833 181.855 65.8502 178.745C50.4358 173.451 36.7777 164.013 26.3746 151.466C15.9715 138.92 9.22545 123.75 6.87676 107.622C4.52807 91.4937 6.66748 75.0302 13.0602 60.0379C19.453 45.0456 29.852 32.104 43.1162 22.6331C56.3804 13.1623 71.9972 7.5282 88.2529 6.34918C104.509 5.17015 120.775 8.49173 135.267 15.9494C149.759 23.4071 161.917 34.7127 170.406 48.6256C178.895 62.5385 183.388 78.521 183.391 94.8194H183.372Z" fill="#F0EDFE"/>
  <path d="M30.5415 51.0238C30.041 56.9407 31.6544 62.8435 35.0951 67.6831C36.8232 70.0705 39.0352 72.0668 41.5868 73.5419C44.1383 75.017 46.9721 75.9378 49.9033 76.2442C52.2907 76.493 54.7035 76.2178 56.9734 75.4377C59.2434 74.6576 61.3157 73.3914 63.0457 71.7276C66.1647 68.5531 67.6178 64.1199 70.3018 60.6214C72.9858 57.123 76.8822 54.4482 79.0016 50.5333C82.2409 44.5729 80.3899 36.6505 75.6512 31.8101C59.7971 15.4747 32.1056 30.4495 30.5415 51.0238Z" fill="#B5E1E8"/>
  <path d="M130.119 70.1636C124.566 74.4487 121.845 82.4637 124.742 88.8128C126.519 92.7184 130.147 95.6986 131.22 99.8449C132.849 105.87 128.684 111.803 127.518 117.939C126.913 121.316 127.239 124.795 128.462 128.001C129.685 131.207 131.758 134.019 134.46 136.134C137.22 138.171 140.507 139.374 143.93 139.601C147.354 139.827 150.77 139.067 153.775 137.412C157.792 135.079 160.698 131.201 162.919 127.12C166.786 119.827 168.82 111.703 168.844 103.448C168.868 95.1941 166.882 87.0579 163.058 79.7427C160.337 74.6431 155.784 68.2848 150.018 66.3597C143.807 64.268 135.2 66.1931 130.119 70.1636Z" fill="#B5E1E8"/>
  <path d="M46.1001 107.758C36.5487 108.471 26.9511 114.163 23.7488 123.196C22.7411 126.046 22.4121 129.092 22.7881 132.091C23.1641 135.091 24.2346 137.962 25.9145 140.475C27.6431 142.957 29.97 144.964 32.6797 146.308C35.3895 147.652 38.3946 148.291 41.4169 148.166C46.5351 147.861 51.5976 145.26 56.5954 146.315C59.2351 147.038 61.6671 148.373 63.6942 150.211C67.7942 153.58 71.5703 157.782 76.6514 159.18C83.6113 161.077 91.3671 156.699 94.3843 150.147C97.4015 143.594 96.1151 135.57 92.1723 129.526C87.7854 122.788 80.409 118.531 73.3843 114.949C65.0084 110.683 55.7532 107.036 46.1001 107.758Z" fill="#B5E1E8"/>
  <path d="M154.127 79.7612C148.828 78.2802 143.209 78.404 137.98 80.1171C132.752 81.8302 128.149 85.0555 124.754 89.3851C121.359 93.7146 119.325 98.9539 118.908 104.44C118.491 109.926 119.711 115.412 122.413 120.205C125.115 124.998 129.178 128.881 134.088 131.365C138.997 133.848 144.533 134.819 149.995 134.155C155.457 133.491 160.599 131.223 164.771 127.636C168.943 124.049 171.957 119.306 173.433 114.005C174.435 110.489 174.729 106.809 174.299 103.178C173.869 99.5478 172.723 96.0384 170.927 92.8536C169.132 89.6688 166.722 86.8717 163.838 84.6244C160.955 82.3771 157.654 80.7241 154.127 79.7612ZM139.318 132.645C132.428 130.721 126.578 126.15 123.046 119.928C119.514 113.707 118.586 106.341 120.465 99.4377C119.938 101.585 122.141 104.306 126.694 107.138C132.24 110.364 138.195 112.827 144.399 114.459C150.567 116.274 156.945 117.273 163.372 117.43C167.389 117.43 170.48 116.837 172.128 115.653C169.818 122.1 165.155 127.435 159.074 130.587C152.994 133.739 145.946 134.474 139.346 132.645H139.318ZM172.739 113.839L172.628 114.218C170.777 117.726 158.069 117.596 144.603 113.83C138.46 112.216 132.563 109.778 127.074 106.583C122.789 103.926 120.595 101.363 121.141 99.5395C121.687 97.7163 125.139 96.6056 130.193 96.6056C136.434 96.7632 142.628 97.7308 148.62 99.484C154.868 101.14 160.877 103.591 166.501 106.777C170.684 109.285 172.979 111.701 172.831 113.478C172.804 113.598 172.776 113.718 172.739 113.839ZM173.183 111.988C172.415 110.239 170.258 108.286 166.834 106.194C161.163 102.964 155.1 100.476 148.796 98.7899C134.2 94.7083 121.807 94.9212 120.521 99.2619C120.526 99.2375 120.526 99.2122 120.521 99.1878C122.128 93.5067 125.544 88.5046 130.251 84.9403C134.957 81.376 140.698 79.444 146.602 79.4373C150.625 79.4371 154.597 80.3314 158.231 82.0556C161.865 83.7798 165.071 86.2906 167.615 89.4063C170.159 92.522 171.979 96.1645 172.942 100.07C173.905 103.976 173.987 108.046 173.183 111.988Z" fill="#6A4FF5"/>
  <path d="M116.615 75.3187C116.623 75.2603 116.623 75.2011 116.615 75.1428L110.136 31.227C110.118 31.1215 110.062 31.0262 109.979 30.9586L92.385 17.8533C92.3124 17.8103 92.2284 17.7909 92.1443 17.7977H92.0888L48.173 24.2764C48.1198 24.2827 48.0685 24.2999 48.0223 24.327C47.9762 24.3541 47.9361 24.3904 47.9046 24.4337C47.8951 24.4795 47.8951 24.5267 47.9046 24.5725C47.8963 24.6277 47.8963 24.6839 47.9046 24.7391L54.3832 68.6549C54.3984 68.7542 54.4515 68.8438 54.5313 68.9048L72.1161 82.0194C72.1839 82.0671 72.2646 82.0929 72.3475 82.0935H72.4123L116.337 75.6148C116.385 75.6087 116.43 75.5933 116.472 75.5695C116.513 75.5457 116.549 75.5139 116.578 75.476C116.578 75.476 116.615 75.3557 116.615 75.3187ZM93.9398 33.2169L65.9799 37.3447L49.2558 24.9242L91.8297 18.64L93.9398 33.2169ZM92.6719 19.0935L108.739 31.0234L94.7358 33.0965L92.6719 19.0935ZM94.0601 34.0128L98.1509 61.7783L70.3854 65.8784L66.2946 38.1128L94.0601 34.0128ZM65.4709 37.9925L69.608 65.9802L55.0496 68.1274L48.7746 25.5536L65.4709 37.9925ZM69.7283 66.7761L71.7922 80.7792L55.7437 68.8493L69.7283 66.7761ZM70.5242 66.6651L98.5119 62.528L115.245 74.967L72.6714 81.2512L70.5242 66.6651ZM99.0302 61.8801L94.8931 33.9017L109.47 31.7453L115.745 74.3191L99.0302 61.8801Z" fill="#6A4FF5"/>
  <path d="M22.7954 83.2966L24.7112 136.977V137.967L24.8501 141.873V142.141L25.1 142.234C27.5367 143.031 30.0793 143.459 32.6429 143.502C33.0872 143.502 33.5684 143.502 34.0312 143.502C35.4622 143.492 36.8909 143.384 38.3071 143.178L39.4918 142.983C40.7794 142.748 42.0525 142.439 43.3049 142.058L44.323 141.725C45.6307 141.281 46.9102 140.759 48.1546 140.16C48.4415 140.031 48.7284 139.883 49.0061 139.744C49.9871 139.244 50.9682 138.689 51.9677 138.06L52.2917 137.847C52.5508 137.689 52.8007 137.532 53.0321 137.365C53.9576 136.755 54.8276 136.153 55.6513 135.514C55.8734 135.338 56.0955 135.163 56.3269 134.996C57.5054 134.089 58.5728 133.191 59.5292 132.303L60.1308 131.729C61.0563 130.803 61.88 129.952 62.6112 129.101C62.7685 128.925 62.9166 128.74 63.0647 128.554L63.1387 128.471C63.8003 127.637 64.4181 126.769 64.9898 125.87C65.1379 125.639 65.2859 125.408 65.4155 125.186C66.0244 124.21 66.5566 123.189 67.0074 122.131C67.1185 121.872 67.2203 121.613 67.3128 121.372C67.8961 119.974 68.2432 118.488 68.3401 116.976V116.763L22.7954 83.2966ZM25.7663 141.604C25.9881 140.803 26.2792 140.023 26.6363 139.272C28.2467 140.373 29.8664 141.493 31.4397 142.641C29.5146 142.518 27.6105 142.17 25.7663 141.604ZM32.9483 142.715C30.9862 141.296 28.9995 139.901 26.988 138.532C27.3737 137.767 27.8032 137.025 28.2745 136.31C31.2361 138.439 34.2626 140.512 37.3168 142.521C35.8669 142.686 34.4072 142.751 32.9483 142.715ZM38.5014 142.354C35.1881 140.188 31.9025 137.939 28.691 135.625C29.126 135.005 29.6165 134.357 30.1533 133.673C34.1145 136.449 38.2053 139.05 42.3609 141.53C41.1027 141.887 39.8228 142.162 38.5292 142.354H38.5014ZM43.4159 141.206C39.0845 138.633 34.8271 135.912 30.6808 133.052C31.4679 132.122 32.302 131.232 33.1797 130.387C37.8721 133.524 42.62 136.634 47.3679 139.642C46.0976 140.254 44.7864 140.776 43.4437 141.206H43.4159ZM51.5513 137.412C51.1718 137.652 50.7923 137.865 50.4129 138.087L49.8575 136.977C49.8458 136.953 49.8295 136.932 49.8095 136.915C49.7895 136.898 49.7662 136.885 49.7412 136.878C49.7161 136.87 49.6897 136.867 49.6635 136.87C49.6374 136.873 49.6121 136.881 49.5892 136.893C49.5418 136.917 49.5057 136.959 49.4884 137.009C49.4711 137.059 49.474 137.114 49.4966 137.162L50.0612 138.291C49.4503 138.643 48.8302 138.967 48.2101 139.272C43.3789 136.19 38.5385 133.015 33.7628 129.822C34.642 128.999 35.6138 128.156 36.7059 127.305C41.5649 130.776 46.5349 134.154 51.5142 137.402L51.5513 137.412ZM52.3102 136.93L48.6081 134.506L47.6826 132.654C47.6569 132.606 47.6138 132.57 47.5622 132.553C47.5105 132.536 47.4543 132.539 47.4049 132.562C47.3585 132.589 47.3242 132.633 47.3087 132.684C47.2933 132.736 47.2979 132.791 47.3216 132.84L47.9325 134.061C44.3785 131.701 40.8523 129.276 37.3908 126.814C38.3163 126.139 39.2419 125.463 40.2322 124.788L45.1929 128.268C45.1706 128.302 45.1588 128.342 45.1588 128.383C45.1588 128.424 45.1706 128.464 45.1929 128.499L46.2758 130.646C46.3015 130.694 46.3446 130.73 46.3962 130.748C46.4478 130.765 46.5041 130.762 46.5535 130.739C46.5811 130.729 46.6042 130.709 46.6182 130.683C46.6389 130.652 46.65 130.615 46.65 130.577C46.65 130.539 46.6389 130.502 46.6182 130.47L45.6927 128.564L54.9942 135.126C54.1705 135.699 53.282 136.32 52.3379 136.977L52.3102 136.93ZM55.642 134.58L41.0003 124.288L41.8611 123.751C42.8329 123.149 43.7862 122.594 44.7394 122.094C49.367 125.426 54.1242 128.703 58.8721 131.896C57.9096 132.815 56.8421 133.71 55.6698 134.58H55.642ZM59.4459 131.331C54.7721 128.184 50.1074 124.954 45.5169 121.678C46.7756 121.03 48.0065 120.475 49.2189 119.984C53.356 123.02 57.6134 125.954 61.9356 128.712C61.1601 129.626 60.3384 130.5 59.4737 131.331H59.4459ZM62.4446 128.082C58.2427 125.408 54.1149 122.585 50.0982 119.642C51.2717 119.19 52.4671 118.798 53.6799 118.466C57.2092 120.817 60.7632 123.159 64.3419 125.491C63.7623 126.385 63.1384 127.25 62.4724 128.082H62.4446ZM64.7584 124.797C61.408 122.613 58.0638 120.407 54.7258 118.179C56.2672 117.765 57.8349 117.456 59.4181 117.254C61.7505 118.71 64.0581 120.188 66.341 121.687C65.903 122.762 65.3832 123.802 64.7862 124.797H64.7584ZM66.6094 120.965C64.6473 119.682 62.6729 118.414 60.6861 117.161C62.9684 116.937 65.27 117.006 67.5349 117.365C67.3803 118.597 67.0789 119.805 66.6372 120.965H66.6094ZM59.5662 116.458L58.3075 116.625C56.782 116.843 55.2707 117.152 53.7817 117.55C53.4393 117.633 53.0969 117.735 52.7544 117.837C51.6345 118.17 50.4776 118.568 49.2745 119.031L48.349 119.392C47.1643 119.882 45.9334 120.456 44.6469 121.104L43.8509 121.539C43.0087 121.993 42.148 122.465 41.2873 123.029C40.8893 123.27 40.5006 123.52 40.1304 123.76C39.7602 124.001 39.6398 124.084 39.4085 124.251C38.3996 124.926 37.4464 125.602 36.5671 126.268L36.0951 126.796C35.003 127.657 34.0219 128.499 33.1334 129.332L32.5319 129.906C31.6063 130.831 30.7641 131.701 30.0422 132.553L29.5239 133.173C28.9779 133.848 28.4966 134.496 28.0709 135.107L27.6174 135.792C27.1472 136.514 26.7177 137.262 26.3309 138.032C26.1921 138.291 26.081 138.532 25.9699 138.763C25.8589 138.994 25.7478 139.272 25.646 139.503V138.522V137.532L23.795 85.4253L24.7205 87.2023C24.7462 87.2503 24.7892 87.2867 24.8409 87.3039C24.8925 87.3211 24.9488 87.3179 24.9981 87.2949C25.024 87.282 25.0462 87.2629 25.0629 87.2393C25.0836 87.2077 25.0947 87.1707 25.0947 87.1329C25.0947 87.0951 25.0836 87.0581 25.0629 87.0265L24.1374 85.1754L66.5817 116.347C64.2679 116.125 61.9365 116.162 59.631 116.458H59.5662Z" fill="#6A4FF5"/>
  <path d="M36.5026 111.109L37.5855 113.274C37.5973 113.299 37.6139 113.321 37.6344 113.339C37.6549 113.357 37.6788 113.371 37.7047 113.379C37.7306 113.388 37.7579 113.391 37.7852 113.389C37.8124 113.387 37.8389 113.379 37.8631 113.367C37.8908 113.357 37.9138 113.337 37.9279 113.311C37.9486 113.28 37.9596 113.243 37.9596 113.205C37.9596 113.167 37.9486 113.13 37.9279 113.098L36.845 110.923C36.8212 110.876 36.7798 110.84 36.7296 110.823C36.6795 110.805 36.6246 110.808 36.5766 110.831C36.5318 110.86 36.4994 110.904 36.4857 110.955C36.472 111.007 36.478 111.061 36.5026 111.109Z" fill="#6A4FF5"/>
  <path d="M38.6774 115.449L39.7972 117.624C39.8089 117.648 39.8253 117.669 39.8453 117.686C39.8653 117.703 39.8885 117.715 39.9136 117.723C39.9387 117.731 39.9651 117.734 39.9912 117.731C40.0174 117.728 40.0427 117.72 40.0656 117.707C40.0907 117.698 40.1129 117.682 40.1304 117.661C40.1531 117.629 40.1653 117.59 40.1653 117.55C40.1653 117.51 40.1531 117.472 40.1304 117.439L39.0476 115.264C39.0204 115.218 38.9766 115.183 38.9251 115.168C38.8736 115.152 38.8182 115.157 38.7699 115.181C38.7456 115.192 38.7238 115.207 38.7058 115.227C38.6878 115.247 38.6741 115.27 38.6654 115.295C38.6567 115.32 38.6533 115.347 38.6554 115.373C38.6574 115.4 38.6649 115.426 38.6774 115.449Z" fill="#6A4FF5"/>
  <path d="M40.8432 119.79L41.926 121.965C41.9517 122.013 41.9948 122.049 42.0464 122.066C42.0981 122.084 42.1544 122.08 42.2037 122.057L42.2685 122.002C42.2889 121.968 42.2997 121.93 42.2997 121.891C42.2997 121.851 42.2889 121.813 42.2685 121.78L41.1856 119.614C41.1748 119.59 41.159 119.568 41.1394 119.55C41.1198 119.532 41.0967 119.518 41.0715 119.509C41.0463 119.501 41.0197 119.497 40.9931 119.499C40.9666 119.501 40.9407 119.509 40.9172 119.521C40.8731 119.548 40.8409 119.591 40.8272 119.641C40.8134 119.691 40.8191 119.744 40.8432 119.79Z" fill="#6A4FF5"/>
  <path d="M34.337 106.768L35.4199 108.934C35.4438 108.981 35.4852 109.017 35.5353 109.034C35.5854 109.052 35.6403 109.049 35.6883 109.026C35.716 109.016 35.739 108.996 35.7531 108.971C35.775 108.939 35.7867 108.902 35.7867 108.864C35.7867 108.826 35.775 108.789 35.7531 108.758L34.6702 106.583C34.6446 106.535 34.6015 106.498 34.5498 106.481C34.4982 106.464 34.4419 106.467 34.3926 106.49C34.3491 106.52 34.319 106.566 34.3086 106.618C34.2983 106.67 34.3085 106.723 34.337 106.768Z" fill="#6A4FF5"/>
  <path d="M25.6458 89.3957L26.7379 91.5614C26.7488 91.5857 26.7645 91.6075 26.7841 91.6255C26.8038 91.6435 26.8269 91.6572 26.852 91.6659C26.8772 91.6746 26.9039 91.678 26.9304 91.676C26.957 91.6739 26.9828 91.6664 27.0063 91.654C27.034 91.644 27.057 91.6242 27.0711 91.5984C27.0918 91.5668 27.1028 91.5298 27.1028 91.492C27.1028 91.4542 27.0918 91.4172 27.0711 91.3856L25.9882 89.2106C25.9637 89.1615 25.9207 89.1242 25.8686 89.1068C25.8165 89.0895 25.7597 89.0935 25.7106 89.118C25.6615 89.1426 25.6242 89.1856 25.6068 89.2377C25.5895 89.2898 25.5935 89.3466 25.618 89.3957H25.6458Z" fill="#6A4FF5"/>
  <path d="M43.018 124.131L44.1008 126.306C44.1247 126.353 44.1661 126.389 44.2162 126.406C44.2663 126.424 44.3212 126.421 44.3692 126.398L44.434 126.343C44.4567 126.31 44.4689 126.271 44.4689 126.232C44.4689 126.192 44.4567 126.153 44.434 126.12L43.3511 123.955C43.3255 123.907 43.2824 123.87 43.2307 123.853C43.1791 123.836 43.1228 123.839 43.0735 123.862C43.0307 123.891 43.0008 123.935 42.9904 123.985C42.98 124.035 42.9899 124.088 43.018 124.131Z" fill="#6A4FF5"/>
  <path d="M27.8215 93.7363L28.9044 95.9113C28.9316 95.9577 28.9753 95.9921 29.0269 96.0075C29.0784 96.023 29.1338 96.0184 29.182 95.9946H29.2468C29.2673 95.9612 29.2781 95.9227 29.2781 95.8835C29.2781 95.8443 29.2673 95.8059 29.2468 95.7725L28.164 93.5975C28.1523 93.574 28.1359 93.5531 28.1159 93.5361C28.0959 93.5191 28.0727 93.5063 28.0476 93.4985C28.0225 93.4907 27.9961 93.4881 27.97 93.4908C27.9438 93.4935 27.9185 93.5015 27.8956 93.5142C27.8619 93.5391 27.8367 93.5738 27.8234 93.6136C27.8102 93.6533 27.8095 93.6962 27.8215 93.7363Z" fill="#6A4FF5"/>
  <path d="M32.162 102.418L33.2448 104.584C33.2705 104.632 33.3136 104.668 33.3652 104.685C33.4169 104.702 33.4731 104.699 33.5225 104.676L33.5873 104.621C33.6077 104.587 33.6185 104.549 33.6185 104.51C33.6185 104.47 33.6077 104.432 33.5873 104.398L32.5044 102.233C32.4805 102.185 32.4391 102.149 32.389 102.132C32.3389 102.115 32.284 102.118 32.236 102.14C32.1894 102.167 32.1555 102.212 32.1416 102.264C32.1278 102.316 32.1351 102.371 32.162 102.418Z" fill="#6A4FF5"/>
  <path d="M29.996 98.1049L31.0788 100.28C31.1027 100.327 31.1441 100.363 31.1943 100.381C31.2444 100.398 31.2993 100.395 31.3472 100.372L31.412 100.317C31.4347 100.284 31.4469 100.246 31.4469 100.206C31.4469 100.166 31.4347 100.127 31.412 100.095L30.3292 97.929C30.3174 97.9044 30.3007 97.8824 30.2802 97.8644C30.2598 97.8463 30.2359 97.8326 30.21 97.8239C30.1841 97.8153 30.1567 97.812 30.1295 97.8141C30.1022 97.8163 30.0757 97.8239 30.0515 97.8365C30.0087 97.8648 29.9788 97.909 29.9684 97.9592C29.958 98.0095 29.9679 98.0619 29.996 98.1049Z" fill="#6A4FF5"/>
  <path d="M131.192 46.6275C131.074 46.6245 130.957 46.6469 130.848 46.6932C130.739 46.7395 130.642 46.8087 130.563 46.8959C130.482 46.9792 130.419 47.0779 130.378 47.186C130.337 47.2942 130.318 47.4095 130.322 47.5252V47.8769C130.177 47.7197 130.022 47.5714 129.859 47.4327C129.527 47.1668 129.156 46.9544 128.758 46.8033C128.31 46.6403 127.837 46.5588 127.36 46.5627C126.609 46.5552 125.873 46.7676 125.241 47.1735C124.597 47.5902 124.076 48.1718 123.732 48.858C123.361 49.632 123.167 50.4797 123.167 51.3384C123.167 52.197 123.361 53.0447 123.732 53.8187C124.077 54.5142 124.601 55.1052 125.25 55.531C125.897 55.9434 126.649 56.1588 127.416 56.1511C127.853 56.1527 128.286 56.071 128.693 55.9104C129.065 55.7695 129.412 55.5695 129.72 55.3181C129.946 55.1377 130.148 54.9293 130.322 54.698V55.0867C130.317 55.2025 130.336 55.318 130.377 55.4262C130.419 55.5344 130.482 55.633 130.563 55.7161C130.733 55.8721 130.956 55.9587 131.187 55.9587C131.419 55.9587 131.641 55.8721 131.812 55.7161C131.894 55.6335 131.959 55.5352 132.001 55.427C132.044 55.3188 132.065 55.2031 132.062 55.0867V47.5252C132.07 47.4064 132.053 47.2873 132.012 47.1752C131.972 47.0632 131.909 46.9606 131.828 46.8738C131.746 46.7871 131.648 46.718 131.538 46.6708C131.429 46.6237 131.311 46.5995 131.192 46.5997V46.6275ZM130.035 52.9673C129.83 53.4226 129.511 53.8177 129.11 54.1149C128.677 54.3869 128.177 54.5312 127.666 54.5312C127.155 54.5312 126.654 54.3869 126.222 54.1149C125.802 53.8252 125.467 53.4292 125.25 52.9673C125.012 52.4609 124.892 51.9071 124.898 51.3476C124.892 50.7881 125.012 50.2343 125.25 49.728C125.466 49.2655 125.806 48.8716 126.231 48.5896C126.662 48.3173 127.161 48.1728 127.67 48.1728C128.18 48.1728 128.679 48.3173 129.11 48.5896C129.513 48.8811 129.832 49.2738 130.035 49.728C130.279 50.2324 130.4 50.7875 130.387 51.3476C130.398 51.9076 130.277 52.4623 130.035 52.9673Z" fill="#6A4FF5"/>
  <path d="M141.993 50.2278H139.337V47.4512C139.337 47.2058 139.239 46.9704 139.065 46.7968C138.892 46.6232 138.656 46.5257 138.411 46.5257C138.285 46.5213 138.159 46.5428 138.041 46.589C137.923 46.6351 137.816 46.7049 137.726 46.7941C137.636 46.882 137.566 46.9872 137.518 47.1034C137.47 47.2195 137.447 47.3442 137.448 47.4697V50.2463H134.848C134.739 50.2425 134.631 50.2601 134.529 50.2982C134.428 50.3364 134.335 50.3942 134.255 50.4684C134.178 50.5403 134.118 50.628 134.078 50.7254C134.038 50.8229 134.02 50.9278 134.024 51.033C134.02 51.1422 134.039 51.2511 134.079 51.3527C134.119 51.4544 134.179 51.5468 134.257 51.6241C134.334 51.7014 134.426 51.7619 134.528 51.8019C134.63 51.8419 134.739 51.8606 134.848 51.8567H137.448V54.4574C137.447 54.5808 137.469 54.7033 137.515 54.8177C137.561 54.9321 137.63 55.0362 137.717 55.1238C137.902 55.2955 138.145 55.391 138.397 55.391C138.649 55.391 138.893 55.2955 139.077 55.1238C139.163 55.0354 139.229 54.931 139.274 54.8166C139.318 54.7022 139.34 54.5801 139.337 54.4574V51.8289H141.993C142.1 51.8321 142.206 51.814 142.306 51.7759C142.406 51.7378 142.498 51.6803 142.576 51.6068C142.654 51.5318 142.717 51.4412 142.758 51.3408C142.799 51.2403 142.819 51.1323 142.816 51.0237C142.819 50.9165 142.799 50.8099 142.758 50.711C142.716 50.6121 142.654 50.5231 142.576 50.4499C142.418 50.3023 142.209 50.2225 141.993 50.2278Z" fill="#6A4FF5"/>
  <path d="M152.831 48.8581C152.478 48.1835 151.954 47.6125 151.313 47.2014C150.664 46.7895 149.907 46.5771 149.138 46.5906C148.75 46.5882 148.364 46.6572 148 46.7942C147.646 46.9156 147.315 47.0938 147.019 47.3217C146.755 47.5244 146.516 47.7574 146.306 48.0159L146.26 48.0992V43.9251C146.26 43.6874 146.169 43.4588 146.005 43.2865C145.842 43.1142 145.618 43.0114 145.381 42.9996C145.264 42.9982 145.148 43.0205 145.04 43.065C144.931 43.1096 144.833 43.1754 144.751 43.2587C144.593 43.4332 144.507 43.6616 144.511 43.8973V55.1886C144.504 55.3046 144.522 55.4208 144.563 55.5294C144.605 55.638 144.668 55.7366 144.751 55.8187C144.833 55.9009 144.931 55.9648 145.04 56.0061C145.149 56.0475 145.265 56.0653 145.381 56.0586C145.496 56.0598 145.61 56.0382 145.716 55.9951C145.823 55.9519 145.92 55.888 146.002 55.8071C146.084 55.7262 146.148 55.6299 146.193 55.5237C146.237 55.4176 146.26 55.3037 146.26 55.1886V54.7351C146.447 54.9584 146.658 55.1602 146.889 55.3367C147.209 55.5709 147.562 55.7579 147.935 55.892C148.338 56.0413 148.764 56.1166 149.194 56.1142C149.949 56.1223 150.69 55.9065 151.322 55.4941C151.963 55.0651 152.482 54.4787 152.831 53.7911C153.196 53.0153 153.386 52.1683 153.386 51.3107C153.386 50.4531 153.196 49.6062 152.831 48.8303V48.8581ZM151.35 52.9581C151.131 53.4206 150.796 53.819 150.378 54.115C149.958 54.3973 149.46 54.5427 148.953 54.5315C148.435 54.5438 147.925 54.3985 147.491 54.115C147.071 53.8254 146.736 53.4293 146.519 52.9674C146.278 52.4554 146.158 51.895 146.167 51.3292C146.159 50.7725 146.279 50.2213 146.519 49.7188C146.734 49.261 147.07 48.8705 147.491 48.5897C147.925 48.3062 148.435 48.161 148.953 48.1732C149.46 48.162 149.958 48.3075 150.378 48.5897C150.793 48.8774 151.127 49.266 151.35 49.7188C151.597 50.2192 151.721 50.7713 151.711 51.3292C151.719 51.8929 151.595 52.4506 151.35 52.9581Z" fill="#6A4FF5"/>
  <path d="M28.4224 76.2812L25.7847 72.9586L28.3391 69.7471C28.4179 69.6744 28.4755 69.5816 28.5057 69.4787C28.5339 69.3855 28.5494 69.2891 28.552 69.1918C28.5516 69.0878 28.53 68.9849 28.4887 68.8894C28.4473 68.794 28.387 68.7079 28.3114 68.6365C28.2324 68.5586 28.1383 68.4978 28.0347 68.458C27.9312 68.4181 27.8206 68.4002 27.7098 68.4051C27.5702 68.4087 27.4336 68.4469 27.3124 68.5164C27.1913 68.5859 27.0893 68.6844 27.0156 68.8031L24.8129 71.7277L22.4714 68.766C22.3861 68.6553 22.2768 68.5652 22.1518 68.5027C22.0268 68.4402 21.8892 68.4068 21.7494 68.4051C21.5188 68.4082 21.2977 68.4973 21.1294 68.655C21.0438 68.7339 20.9757 68.8298 20.9295 68.9366C20.8832 69.0434 20.8599 69.1587 20.861 69.2751C20.8577 69.469 20.927 69.6572 21.0553 69.8026L23.7115 73.116L21.1201 76.3183C20.9872 76.4689 20.9147 76.6634 20.9165 76.8643C20.9165 76.9721 20.9416 77.0784 20.9898 77.1748C21.038 77.2711 21.1079 77.355 21.1941 77.4196C21.3545 77.557 21.557 77.6353 21.768 77.6418C21.9054 77.6414 22.0408 77.6085 22.163 77.5458C22.2853 77.4831 22.3909 77.3923 22.4714 77.2808L24.7204 74.3932L27.0156 77.2808C27.0999 77.3904 27.2077 77.4797 27.331 77.5421C27.4543 77.6046 27.5901 77.6386 27.7283 77.6418C27.8422 77.6411 27.9548 77.6179 28.0597 77.5734C28.1645 77.5289 28.2595 77.4641 28.3391 77.3826C28.4261 77.3064 28.4959 77.2124 28.5438 77.1071C28.5917 77.0018 28.6166 76.8875 28.6168 76.7718C28.6089 76.5911 28.5405 76.4183 28.4224 76.2812Z" fill="#6A4FF5"/>
  <path d="M38.2888 72.1903C38.1325 72.0393 37.923 71.9562 37.7057 71.959H35.0495V69.1824C35.0495 68.9369 34.952 68.7015 34.7784 68.528C34.6048 68.3544 34.3694 68.2569 34.1239 68.2569C33.8695 68.2541 33.6239 68.3504 33.4391 68.5253C33.3466 68.6111 33.2738 68.7159 33.2259 68.8326C33.1779 68.9492 33.1559 69.0749 33.1614 69.2009V71.9775H30.5422C30.4352 71.9744 30.3286 71.9924 30.2285 72.0305C30.1285 72.0686 30.0369 72.1261 29.9591 72.1996C29.881 72.271 29.8191 72.3584 29.7776 72.4558C29.736 72.5532 29.7159 72.6583 29.7185 72.7642C29.716 72.8741 29.7361 72.9834 29.7775 73.0852C29.8189 73.1871 29.8807 73.2794 29.9591 73.3565C30.0352 73.433 30.1263 73.493 30.2266 73.5328C30.3269 73.5726 30.4343 73.5914 30.5422 73.5879H33.1429V76.1886C33.141 76.3119 33.1637 76.4344 33.2098 76.5489C33.2559 76.6633 33.3244 76.7674 33.4113 76.855C33.5962 77.0267 33.8392 77.1221 34.0916 77.1221C34.3439 77.1221 34.5869 77.0267 34.7718 76.855C34.857 76.7666 34.9238 76.6622 34.9683 76.5478C35.0128 76.4334 35.0341 76.3113 35.031 76.1886V73.5231H37.6872C37.7942 73.5262 37.9008 73.5082 38.0008 73.4701C38.1009 73.432 38.1924 73.3745 38.2703 73.301C38.348 73.2253 38.4094 73.1346 38.4508 73.0343C38.4922 72.934 38.5126 72.8263 38.5109 72.7179C38.5086 72.5198 38.4288 72.3305 38.2888 72.1903Z" fill="#6A4FF5"/>
  <path d="M47.0529 68.3864C47.1695 68.3817 47.2857 68.4015 47.3941 68.4445C47.5026 68.4876 47.6007 68.5529 47.6823 68.6363C47.8443 68.8093 47.9337 69.0379 47.9322 69.2749V76.8179C47.9704 77.6885 47.7687 78.553 47.3491 79.3168C46.9796 79.9346 46.4308 80.4253 45.7757 80.7236C45.0722 81.0285 44.3118 81.1799 43.5452 81.1678C43.1232 81.1676 42.702 81.1305 42.2865 81.0568C41.9269 81.0003 41.5776 80.8912 41.2499 80.7328C41.012 80.6343 40.8068 80.4707 40.6576 80.2608C40.6096 80.1662 40.5846 80.0615 40.5846 79.9554C40.5846 79.8493 40.6096 79.7446 40.6576 79.65C40.6812 79.531 40.7307 79.4187 40.8027 79.3211C40.8747 79.2235 40.9674 79.1431 41.0741 79.0854C41.1693 79.0395 41.2737 79.0156 41.3795 79.0156C41.4853 79.0156 41.5897 79.0395 41.6849 79.0854L42.4716 79.4001C42.8293 79.535 43.2093 79.601 43.5915 79.5944C44.0914 79.6107 44.5883 79.5125 45.0445 79.3075C45.4434 79.1319 45.7701 78.8248 45.9701 78.4376C46.1795 77.925 46.259 77.3686 46.2014 76.8179V75.6147L46.4791 76.0312C46.301 76.3863 46.0522 76.7013 45.7479 76.9567C45.4283 77.2167 45.0647 77.4173 44.6743 77.5491C44.2293 77.6944 43.7635 77.7663 43.2953 77.7619C42.7223 77.7958 42.1513 77.6675 41.6479 77.3917C41.1849 77.1122 40.8171 76.6992 40.5928 76.2071C40.3362 75.6636 40.2095 75.0679 40.2226 74.4671V69.2749C40.2211 69.0379 40.3105 68.8093 40.4725 68.6363C40.5526 68.5536 40.6492 68.4887 40.756 68.4456C40.8629 68.4026 40.9775 68.3824 41.0926 68.3864C41.2089 68.3839 41.3245 68.4047 41.4326 68.4476C41.5407 68.4905 41.6391 68.5547 41.7219 68.6363C41.8839 68.8093 41.9734 69.0379 41.9718 69.2749V74.0413C41.917 74.6476 42.0995 75.2514 42.4809 75.7258C42.6787 75.9161 42.9146 76.0623 43.173 76.1548C43.4315 76.2473 43.7066 76.2841 43.9802 76.2626C44.3834 76.272 44.7821 76.1763 45.1371 75.9849C45.4604 75.8022 45.7264 75.533 45.9053 75.2075C46.0967 74.8492 46.1923 74.4475 46.1829 74.0413V69.3212C46.1814 69.0842 46.2708 68.8556 46.4328 68.6826C46.5107 68.5937 46.6058 68.5216 46.7124 68.4707C46.819 68.4198 46.9349 68.3911 47.0529 68.3864Z" fill="#6A4FF5"/>
  <path d="M123.862 155.487C123.745 155.491 123.628 155.469 123.52 155.425C123.412 155.38 123.314 155.313 123.233 155.228C123.077 155.056 122.991 154.831 122.992 154.599V147.194C122.988 146.959 123.074 146.73 123.233 146.556C123.316 146.474 123.414 146.409 123.522 146.366C123.63 146.323 123.746 146.303 123.862 146.306C123.982 146.304 124.101 146.328 124.211 146.374C124.322 146.421 124.422 146.49 124.504 146.577C124.587 146.664 124.65 146.767 124.691 146.879C124.732 146.992 124.749 147.112 124.742 147.231V149.184L124.566 148.435C124.654 148.104 124.798 147.791 124.991 147.509C125.183 147.231 125.418 146.984 125.686 146.778C125.962 146.56 126.276 146.394 126.611 146.287C126.944 146.168 127.295 146.109 127.648 146.112C127.929 146.106 128.204 146.19 128.434 146.352C128.536 146.42 128.62 146.513 128.678 146.621C128.736 146.729 128.767 146.85 128.768 146.972C128.776 147.097 128.759 147.222 128.717 147.339C128.676 147.457 128.611 147.565 128.527 147.657C128.38 147.798 128.185 147.878 127.981 147.879C127.804 147.88 127.63 147.839 127.472 147.759C127.291 147.681 127.095 147.643 126.898 147.648C126.636 147.653 126.38 147.72 126.148 147.842C125.878 147.981 125.639 148.173 125.445 148.407C125.228 148.685 125.059 148.998 124.945 149.332C124.822 149.696 124.762 150.078 124.769 150.462V154.663C124.773 154.781 124.752 154.897 124.707 155.006C124.662 155.114 124.595 155.212 124.51 155.293C124.422 155.37 124.319 155.427 124.207 155.46C124.096 155.494 123.978 155.503 123.862 155.487Z" fill="#6A4FF5"/>
  <path d="M137.18 153.886C137.399 153.886 137.608 153.973 137.763 154.127C137.917 154.281 138.004 154.491 138.004 154.709C138.007 154.817 137.987 154.923 137.945 155.022C137.904 155.121 137.842 155.21 137.763 155.283C137.687 155.36 137.596 155.42 137.496 155.46C137.396 155.499 137.288 155.518 137.18 155.515H131.044C130.932 155.523 130.819 155.507 130.713 155.468C130.608 155.428 130.512 155.366 130.433 155.286C130.354 155.206 130.293 155.11 130.255 155.004C130.216 154.898 130.202 154.785 130.211 154.672C130.21 154.44 130.295 154.215 130.452 154.043L134.348 149.832C134.796 149.37 135.185 148.854 135.505 148.296C135.764 147.861 135.907 147.367 135.922 146.861C135.929 146.473 135.833 146.09 135.644 145.75C135.459 145.434 135.194 145.173 134.876 144.992C134.54 144.803 134.16 144.708 133.774 144.714C133.354 144.721 132.943 144.846 132.59 145.075C132.198 145.328 131.879 145.679 131.664 146.093C131.578 146.219 131.464 146.323 131.331 146.398C131.222 146.452 131.101 146.481 130.979 146.482C130.76 146.474 130.55 146.389 130.387 146.241C130.303 146.177 130.234 146.094 130.186 146C130.138 145.905 130.112 145.801 130.109 145.695C130.107 145.524 130.163 145.358 130.267 145.223C130.38 145.05 130.514 144.892 130.665 144.751C131.06 144.236 131.57 143.82 132.155 143.538C132.7 143.261 133.302 143.112 133.913 143.103C134.627 143.082 135.335 143.245 135.968 143.575C136.52 143.879 136.975 144.331 137.282 144.88C137.596 145.463 137.755 146.116 137.745 146.778C137.739 147.265 137.648 147.747 137.477 148.203C137.293 148.712 137.047 149.197 136.745 149.647C136.407 150.167 136.023 150.656 135.598 151.109L132.886 154.062L132.692 153.886H137.18Z" fill="#6A4FF5"/>
  <path d="M140.364 149.694C140.134 149.699 139.911 149.612 139.744 149.453C139.662 149.38 139.597 149.29 139.552 149.189C139.508 149.089 139.485 148.98 139.485 148.87C139.482 148.761 139.503 148.652 139.548 148.553C139.593 148.453 139.66 148.365 139.744 148.296C139.916 148.145 140.136 148.063 140.364 148.065H146.899C147.013 148.06 147.127 148.079 147.234 148.12C147.34 148.162 147.437 148.225 147.519 148.305C147.596 148.378 147.656 148.465 147.698 148.563C147.739 148.66 147.76 148.764 147.759 148.87C147.76 148.978 147.738 149.085 147.697 149.185C147.656 149.285 147.595 149.376 147.519 149.453C147.437 149.533 147.34 149.596 147.234 149.638C147.127 149.679 147.013 149.698 146.899 149.694H140.364ZM140.364 153.016C140.249 153.02 140.135 152.999 140.028 152.956C139.922 152.913 139.825 152.849 139.744 152.766C139.662 152.696 139.596 152.607 139.551 152.508C139.506 152.409 139.484 152.301 139.485 152.192C139.483 152.086 139.505 151.981 139.55 151.885C139.595 151.788 139.662 151.704 139.744 151.637C139.827 151.56 139.925 151.499 140.031 151.459C140.138 151.42 140.251 151.402 140.364 151.406H146.899C147.012 151.4 147.126 151.417 147.233 151.457C147.339 151.497 147.437 151.558 147.519 151.637C147.596 151.707 147.658 151.793 147.699 151.889C147.741 151.985 147.761 152.088 147.759 152.192C147.76 152.299 147.74 152.406 147.698 152.504C147.657 152.603 147.596 152.692 147.519 152.766C147.439 152.85 147.343 152.916 147.236 152.959C147.129 153.002 147.014 153.021 146.899 153.016H140.364Z" fill="#6A4FF5"/>
  <path d="M86.8973 55.4849L104.316 69.9415L99.2252 76.4664L81.9365 60.6585L86.8973 55.4849Z" fill="#6A4FF5"/>
  <path d="M120.207 94.8193C119.494 92.8694 118.513 91.0284 117.291 89.3495L117.088 89.0811C117.088 89.0811 118.069 82.1768 117.412 80.7515C116.754 79.3262 111.988 76.7532 111.988 76.7532C111.988 76.7532 112.821 73.4769 111.988 72.1257C111.155 70.7744 107.064 69.3491 107.064 69.3491C107.064 69.3491 108.055 65.7396 107.231 64.0829C106.407 62.4262 90.3124 55.0684 90.3124 55.0684C86.0365 58.03 90.3124 63.6109 90.3124 63.6109L90.0718 64.1292C89.535 65.3046 88.1282 68.3033 86.4438 71.9591C86.3512 72.1719 86.2494 72.3848 86.1476 72.5977C82.7139 80.0018 78.2529 89.8401 77.1701 92.6907C75.3653 97.4571 79.1414 110.59 77.8272 125.084C77.4477 129.184 74.375 163.53 74.375 163.53L108.212 160.087C108.212 160.087 105.26 133.302 108.379 124.103C111.498 114.903 121.364 98.1049 120.207 94.8193ZM93.598 80.3257C94.3292 76.346 95.0233 70.7096 94.6623 67.9701L97.5407 69.8211C96.9484 73.699 96.0044 78.0952 95.6897 78.5302C95.375 78.9652 94.0422 79.9185 93.598 80.3257Z" fill="#FF9582"/>
  <path d="M117.689 81.1402C117.245 78.3637 112.636 76.6515 112.441 76.5867C112.603 75.5264 112.696 74.4567 112.719 73.3844C112.659 72.8819 112.488 72.399 112.219 71.9702C111.95 71.5414 111.59 71.1773 111.164 70.904C110.079 70.0754 108.853 69.4485 107.546 69.053C107.809 67.6468 107.875 66.2106 107.74 64.7863C107.101 62.0098 92.1912 55.4571 90.4882 54.726C90.4048 54.6939 90.3125 54.6939 90.2291 54.726C89.7561 54.9161 89.33 55.2065 88.9801 55.5772C88.6301 55.9479 88.3648 56.39 88.2022 56.8732C87.6006 58.6316 88.2022 60.9454 90.0532 63.759C90.0902 63.8777 90.1211 63.9982 90.1458 64.12C90.5872 65.9534 90.4581 67.878 89.7756 69.6361C89.5455 70.3385 89.0914 70.9461 88.4829 71.3657C87.8744 71.7853 87.145 71.9938 86.4067 71.9591C86.3103 71.951 86.2145 71.9801 86.1388 72.0403C86.0631 72.1005 86.0133 72.1873 85.9995 72.283C85.9907 72.3432 85.9991 72.4047 86.0237 72.4603C86.0482 72.516 86.0879 72.5636 86.1383 72.5977C86.183 72.6432 86.2416 72.6725 86.3049 72.681H86.564C87.4204 72.6714 88.2534 72.4003 88.9515 71.9041C89.6495 71.4078 90.1792 70.7101 90.4697 69.9045C91.1765 68.0113 91.2831 65.9463 90.7751 63.9904C91.6359 64.0829 93.4776 64.6845 94.1718 67.9146C94.7641 70.6356 94.0792 76.6052 92.2282 84.6942L92.1634 84.9626L91.423 88.2482L92.1264 88.4056L92.8668 85.1292L92.9316 84.8516C93.2 83.6762 93.5054 82.2694 93.8571 80.7515C93.8875 80.759 93.9193 80.759 93.9497 80.7515C94.6549 80.1016 95.3165 79.406 95.9303 78.6691C96.5411 77.9009 97.6054 71.0058 97.7813 69.6268C97.7917 69.5579 97.7824 69.4875 97.7546 69.4237C97.7268 69.3598 97.6815 69.3051 97.624 69.2658L95.0788 67.6277C94.9954 67.5956 94.903 67.5956 94.8196 67.6277C93.8941 63.6757 91.2842 63.287 90.479 63.2685C88.8871 60.7418 88.304 58.6409 88.8223 57.1416C89.0095 56.5769 89.3688 56.085 89.8496 55.7348C89.9124 56.4223 90.1383 57.0849 90.5085 57.6675C90.8788 58.2502 91.3826 58.7362 91.9783 59.0852C92.7677 59.5388 93.6692 59.7602 94.579 59.7238C95.759 59.6934 96.9283 59.4907 98.0497 59.1222C102.622 61.4175 106.713 63.8331 106.972 64.99C107.082 66.385 107.008 67.7886 106.75 69.164C106.715 69.2046 106.69 69.252 106.676 69.3031C106.661 69.3542 106.658 69.4078 106.666 69.4602V69.5342C106.12 73.3196 105.065 78.3729 104.362 81.4549C104.349 81.5012 104.347 81.5494 104.354 81.5968C104.361 81.6441 104.377 81.6895 104.402 81.7302C104.427 81.7709 104.461 81.8061 104.5 81.8336C104.539 81.861 104.583 81.8802 104.63 81.8899C104.676 81.9009 104.724 81.9027 104.771 81.8952C104.818 81.8876 104.863 81.8709 104.903 81.846C104.944 81.821 104.979 81.7884 105.007 81.7499C105.034 81.7113 105.054 81.6677 105.065 81.6215C105.148 81.2235 106.648 74.7171 107.36 69.8119C108.49 70.1266 111.849 71.6629 111.905 73.4214C111.979 75.7352 109.952 86.7026 109.933 86.8137C109.919 86.909 109.942 87.006 109.997 87.085C110.052 87.1641 110.135 87.2193 110.23 87.2394H110.294C110.379 87.239 110.462 87.2093 110.527 87.1554C110.593 87.1015 110.638 87.0266 110.655 86.9432C110.711 86.6286 111.692 81.3068 112.256 77.3179C112.886 77.5677 116.579 79.0763 116.884 81.2606C117.282 83.815 116.079 92.5704 116.06 92.6629C116.052 92.7566 116.078 92.8501 116.135 92.9254C116.191 93.0006 116.273 93.0522 116.366 93.0702H116.421C116.51 93.0668 116.594 93.0326 116.66 92.9734C116.726 92.9142 116.769 92.8339 116.782 92.7462C116.782 92.6074 116.995 91.1821 117.199 89.3588C117.606 86.536 117.948 82.7414 117.689 81.1402ZM95.0047 68.4884L97.0594 69.8119C96.4671 73.6806 95.6804 77.8454 95.3564 78.2804C94.9498 78.772 94.5075 79.233 94.0329 79.6594C94.7641 75.6612 95.3287 71.2094 95.0047 68.4884ZM92.3948 58.4651C91.8745 58.1754 91.4335 57.7622 91.1107 57.2619C90.7878 56.7615 90.5931 56.1894 90.5437 55.5959C92.5244 56.4474 94.8289 57.521 97.0779 58.6316C96.0043 58.9278 93.7646 59.3443 92.3948 58.4651Z" fill="#412945"/>
  <path d="M117.485 180.578C100.468 185.07 82.5022 184.426 65.8506 178.727L68.9511 142.113H115.606L117.485 180.578Z" fill="#6A4FF5"/>
</svg>
